<?xml version="1.0" encoding="utf-8"?>
<!-- Generator: Adobe Illustrator 25.3.0, SVG Export Plug-In . SVG Version: 6.00 Build 0)  -->
<svg version="1.1" id="Layer_1" xmlns="http://www.w3.org/2000/svg" xmlns:xlink="http://www.w3.org/1999/xlink" x="0px" y="0px"
	 viewBox="0 0 759.03 369.25" style="enable-background:new 0 0 759.03 369.25;" xml:space="preserve">
<style type="text/css">
	.st0{fill:none;stroke:url(#SVGID_1_);stroke-miterlimit:10;}
	.st1{opacity:0.57;fill:#00A14B;}
	.st2{opacity:0.46;fill:#E88424;}
	.st3{opacity:0.71;fill:#F99D1C;}
	.st4{opacity:0.61;fill:#DD4126;}
	.st5{opacity:0.51;fill:#EF4136;}
	.st6{fill:url(#SVGID_2_);}
	.st7{fill:url(#SVGID_3_);}
	.st8{fill:url(#SVGID_4_);}
	.st9{fill:url(#SVGID_5_);}
	.st10{fill:url(#SVGID_6_);}
	.st11{fill:url(#SVGID_7_);}
	.st12{fill:url(#SVGID_8_);}
	.st13{fill:url(#SVGID_9_);}
	.st14{fill:url(#SVGID_10_);}
	.st15{fill:url(#SVGID_11_);}
	.st16{fill:url(#SVGID_12_);}
	.st17{fill:url(#SVGID_13_);}
	.st18{fill:url(#SVGID_14_);}
	.st19{fill:url(#SVGID_15_);}
	.st20{opacity:0.28;fill:#1C75BC;}
	.st21{opacity:0.14;fill:#EF4136;}
	.st22{opacity:0.5;fill:#009444;fill-opacity:0.42;}
	.st23{fill:url(#SVGID_16_);}
	.st24{fill:url(#SVGID_17_);}
	.st25{fill:#010101;}
	.st26{fill:#F15A29;}
	.st27{fill:#EF4136;}
	.st28{fill:#FBB040;}
</style>
<linearGradient id="SVGID_1_" gradientUnits="userSpaceOnUse" x1="27.0786" y1="36.7925" x2="236.2547" y2="36.7925">
	<stop  offset="0" style="stop-color:#E64425"/>
	<stop  offset="0.8096" style="stop-color:#1C75BC"/>
</linearGradient>
<rect x="27.58" y="20.13" class="st0" width="208.18" height="33.33"/>
<circle class="st1" cx="615.16" cy="319.03" r="10.85"/>
<circle class="st2" cx="713.9" cy="329.87" r="36.95"/>
<circle class="st3" cx="672.23" cy="264.62" r="23.9"/>
<circle class="st4" cx="632.61" cy="343.71" r="4.09"/>
<circle class="st5" cx="644.87" cy="284.91" r="16.35"/>
<g>
	<g>
		<linearGradient id="SVGID_2_" gradientUnits="userSpaceOnUse" x1="215.6699" y1="193.4656" x2="516.9873" y2="193.4656">
			<stop  offset="0" style="stop-color:#ED1C24"/>
			<stop  offset="1" style="stop-color:#FBB040"/>
		</linearGradient>
		<path class="st6" d="M230.79,162.47h6.26v32.47c0,12.89-6.34,16.85-14.69,16.85c-2.3,0-5.11-0.5-6.7-1.15l0.94-5.11
			c1.3,0.5,3.17,0.94,5.26,0.94c5.62,0,8.93-2.52,8.93-12.02V162.47z"/>
		<linearGradient id="SVGID_3_" gradientUnits="userSpaceOnUse" x1="215.6699" y1="193.4656" x2="516.9873" y2="193.4656">
			<stop  offset="0" style="stop-color:#ED1C24"/>
			<stop  offset="1" style="stop-color:#FBB040"/>
		</linearGradient>
		<path class="st7" d="M266.58,211l-0.5-4.39h-0.22c-1.94,2.74-5.69,5.18-10.66,5.18c-7.06,0-10.66-4.97-10.66-10.01
			c0-8.42,7.49-13.03,20.95-12.96v-0.72c0-2.88-0.79-8.06-7.92-8.06c-3.24,0-6.62,1.01-9.07,2.59l-1.44-4.18
			c2.88-1.87,7.06-3.1,11.45-3.1c10.66,0,13.25,7.27,13.25,14.26v13.03c0,3.02,0.14,5.98,0.58,8.35H266.58z M265.64,193.21
			c-6.91-0.14-14.76,1.08-14.76,7.85c0,4.1,2.74,6.05,5.98,6.05c4.54,0,7.42-2.88,8.42-5.83c0.22-0.65,0.36-1.37,0.36-2.02V193.21z"
			/>
		<linearGradient id="SVGID_4_" gradientUnits="userSpaceOnUse" x1="215.6699" y1="193.4656" x2="516.9873" y2="193.4656">
			<stop  offset="0" style="stop-color:#ED1C24"/>
			<stop  offset="1" style="stop-color:#FBB040"/>
		</linearGradient>
		<path class="st8" d="M283.85,176.15l6.84,19.59c1.15,3.17,2.09,6.05,2.81,8.93h0.22c0.79-2.88,1.8-5.76,2.95-8.93l6.77-19.59h6.62
			L296.38,211h-6.05l-13.25-34.85H283.85z"/>
		<linearGradient id="SVGID_5_" gradientUnits="userSpaceOnUse" x1="215.6699" y1="193.4656" x2="516.9873" y2="193.4656">
			<stop  offset="0" style="stop-color:#ED1C24"/>
			<stop  offset="1" style="stop-color:#FBB040"/>
		</linearGradient>
		<path class="st9" d="M335.05,211l-0.5-4.39h-0.22c-1.94,2.74-5.69,5.18-10.66,5.18c-7.06,0-10.66-4.97-10.66-10.01
			c0-8.42,7.49-13.03,20.95-12.96v-0.72c0-2.88-0.79-8.06-7.92-8.06c-3.24,0-6.62,1.01-9.07,2.59l-1.44-4.18
			c2.88-1.87,7.06-3.1,11.45-3.1c10.66,0,13.25,7.27,13.25,14.26v13.03c0,3.02,0.14,5.98,0.58,8.35H335.05z M334.11,193.21
			c-6.91-0.14-14.76,1.08-14.76,7.85c0,4.1,2.74,6.05,5.98,6.05c4.54,0,7.42-2.88,8.42-5.83c0.22-0.65,0.36-1.37,0.36-2.02V193.21z"
			/>
		<linearGradient id="SVGID_6_" gradientUnits="userSpaceOnUse" x1="215.6699" y1="193.4656" x2="516.9873" y2="193.4656">
			<stop  offset="0" style="stop-color:#ED1C24"/>
			<stop  offset="1" style="stop-color:#FBB040"/>
		</linearGradient>
		<path class="st10" d="M349.8,203.37c2.81,1.73,6.91,3.17,11.23,3.17c6.41,0,10.15-3.38,10.15-8.28c0-4.54-2.59-7.13-9.14-9.65
			c-7.92-2.81-12.82-6.91-12.82-13.75c0-7.56,6.26-13.18,15.7-13.18c4.97,0,8.57,1.15,10.73,2.38l-1.73,5.11
			c-1.58-0.86-4.82-2.3-9.22-2.3c-6.62,0-9.14,3.96-9.14,7.27c0,4.54,2.95,6.77,9.65,9.36c8.21,3.17,12.38,7.13,12.38,14.26
			c0,7.49-5.54,13.97-16.99,13.97c-4.68,0-9.79-1.37-12.38-3.1L349.8,203.37z"/>
		<linearGradient id="SVGID_7_" gradientUnits="userSpaceOnUse" x1="215.6699" y1="193.4656" x2="516.9873" y2="193.4656">
			<stop  offset="0" style="stop-color:#ED1C24"/>
			<stop  offset="1" style="stop-color:#FBB040"/>
		</linearGradient>
		<path class="st11" d="M411.22,209.7c-1.66,0.86-5.33,2.02-10.01,2.02c-10.51,0-17.35-7.13-17.35-17.79
			c0-10.73,7.34-18.51,18.72-18.51c3.74,0,7.06,0.94,8.78,1.8l-1.44,4.9c-1.51-0.86-3.89-1.66-7.34-1.66
			c-7.99,0-12.31,5.91-12.31,13.18c0,8.06,5.18,13.03,12.1,13.03c3.6,0,5.98-0.94,7.78-1.73L411.22,209.7z"/>
		<linearGradient id="SVGID_8_" gradientUnits="userSpaceOnUse" x1="215.6699" y1="193.4656" x2="516.9873" y2="193.4656">
			<stop  offset="0" style="stop-color:#ED1C24"/>
			<stop  offset="1" style="stop-color:#FBB040"/>
		</linearGradient>
		<path class="st12" d="M418.64,187.02c0-4.1-0.07-7.63-0.29-10.87h5.54l0.22,6.84h0.29c1.58-4.68,5.4-7.63,9.65-7.63
			c0.72,0,1.22,0.07,1.8,0.22v5.98c-0.65-0.14-1.3-0.22-2.16-0.22c-4.46,0-7.63,3.38-8.5,8.14c-0.14,0.86-0.29,1.87-0.29,2.95V211
			h-6.26V187.02z"/>
		<linearGradient id="SVGID_9_" gradientUnits="userSpaceOnUse" x1="215.6699" y1="193.4656" x2="516.9873" y2="193.4656">
			<stop  offset="0" style="stop-color:#ED1C24"/>
			<stop  offset="1" style="stop-color:#FBB040"/>
		</linearGradient>
		<path class="st13" d="M449.52,166.35c0.07,2.16-1.51,3.89-4.03,3.89c-2.23,0-3.82-1.73-3.82-3.89c0-2.23,1.66-3.96,3.96-3.96
			C448.01,162.39,449.52,164.12,449.52,166.35z M442.47,211v-34.85h6.34V211H442.47z"/>
		<linearGradient id="SVGID_10_" gradientUnits="userSpaceOnUse" x1="215.6699" y1="193.4656" x2="516.9873" y2="193.4656">
			<stop  offset="0" style="stop-color:#ED1C24"/>
			<stop  offset="1" style="stop-color:#FBB040"/>
		</linearGradient>
		<path class="st14" d="M459.32,187.52c0-4.46-0.14-8.06-0.29-11.38h5.69l0.29,5.98h0.14c2.59-4.25,6.7-6.77,12.38-6.77
			c8.42,0,14.76,7.13,14.76,17.71c0,12.53-7.63,18.72-15.84,18.72c-4.61,0-8.64-2.02-10.73-5.47h-0.14v18.94h-6.26V187.52z
			 M465.58,196.81c0,0.94,0.14,1.8,0.29,2.59c1.15,4.39,4.97,7.42,9.5,7.42c6.7,0,10.58-5.47,10.58-13.46
			c0-6.98-3.67-12.96-10.37-12.96c-4.32,0-8.35,3.1-9.58,7.85c-0.22,0.79-0.43,1.73-0.43,2.59V196.81z"/>
		<linearGradient id="SVGID_11_" gradientUnits="userSpaceOnUse" x1="215.6699" y1="193.4656" x2="516.9873" y2="193.4656">
			<stop  offset="0" style="stop-color:#ED1C24"/>
			<stop  offset="1" style="stop-color:#FBB040"/>
		</linearGradient>
		<path class="st15" d="M507.91,166.14v10.01h9.07v4.83h-9.07v18.79c0,4.32,1.22,6.77,4.75,6.77c1.66,0,2.88-0.22,3.67-0.43
			l0.29,4.75c-1.22,0.5-3.17,0.86-5.62,0.86c-2.95,0-5.33-0.94-6.84-2.66c-1.8-1.87-2.45-4.97-2.45-9.07v-19.01h-5.4v-4.83h5.4
			v-8.35L507.91,166.14z"/>
	</g>
</g>
<g>
	<path d="M40.49,162.47h6.26v43.28h20.74V211h-27V162.47z"/>
	<path d="M76.77,194.72c0.14,8.57,5.62,12.1,11.95,12.1c4.54,0,7.27-0.79,9.65-1.8l1.08,4.54c-2.23,1.01-6.05,2.16-11.59,2.16
		c-10.73,0-17.14-7.06-17.14-17.57c0-10.51,6.19-18.79,16.35-18.79c11.38,0,14.4,10.01,14.4,16.42c0,1.3-0.14,2.3-0.22,2.95H76.77z
		 M95.35,190.19c0.07-4.03-1.66-10.3-8.79-10.3c-6.41,0-9.22,5.9-9.72,10.3H95.35z"/>
	<path d="M128.61,211l-0.5-4.39h-0.22c-1.94,2.74-5.69,5.18-10.66,5.18c-7.06,0-10.66-4.97-10.66-10.01
		c0-8.42,7.49-13.03,20.95-12.96v-0.72c0-2.88-0.79-8.07-7.92-8.07c-3.24,0-6.62,1.01-9.07,2.59l-1.44-4.18
		c2.88-1.87,7.06-3.1,11.45-3.1c10.66,0,13.25,7.27,13.25,14.26v13.03c0,3.02,0.14,5.98,0.58,8.35H128.61z M127.68,193.21
		c-6.91-0.14-14.76,1.08-14.76,7.85c0,4.1,2.74,6.05,5.98,6.05c4.54,0,7.42-2.88,8.42-5.83c0.22-0.65,0.36-1.37,0.36-2.02V193.21z"
		/>
	<path d="M144.02,187.02c0-4.1-0.07-7.63-0.29-10.87h5.54l0.22,6.84h0.29c1.58-4.68,5.4-7.63,9.65-7.63c0.72,0,1.22,0.07,1.8,0.22
		v5.98c-0.65-0.14-1.3-0.22-2.16-0.22c-4.46,0-7.63,3.38-8.5,8.14c-0.14,0.86-0.29,1.87-0.29,2.95V211h-6.26V187.02z"/>
	<path d="M167.85,185.58c0-3.6-0.07-6.55-0.29-9.43h5.62l0.36,5.76h0.14c1.73-3.31,5.76-6.55,11.52-6.55
		c4.82,0,12.31,2.88,12.31,14.83V211h-6.34v-20.09c0-5.62-2.09-10.3-8.07-10.3c-4.18,0-7.42,2.95-8.5,6.48
		c-0.29,0.79-0.43,1.87-0.43,2.95V211h-6.34V185.58z"/>
</g>
<g>
	<g>
		<linearGradient id="SVGID_12_" gradientUnits="userSpaceOnUse" x1="98.0859" y1="75.623" x2="174.2217" y2="75.623">
			<stop  offset="0" style="stop-color:#ED1C24"/>
			<stop  offset="1" style="stop-color:#FBB040"/>
		</linearGradient>
		<path class="st16" d="M98.09,75.15l16.7-8.6v2.48l-14.07,7.06v0.07l14.07,7.05v2.48l-16.7-8.6V75.15z"/>
		<linearGradient id="SVGID_13_" gradientUnits="userSpaceOnUse" x1="98.0859" y1="75.623" x2="174.2217" y2="75.623">
			<stop  offset="0" style="stop-color:#ED1C24"/>
			<stop  offset="1" style="stop-color:#FBB040"/>
		</linearGradient>
		<path class="st17" d="M135.16,88.4v1.8h-18v-1.8H135.16z"/>
		<linearGradient id="SVGID_14_" gradientUnits="userSpaceOnUse" x1="98.0859" y1="75.623" x2="174.2217" y2="75.623">
			<stop  offset="0" style="stop-color:#ED1C24"/>
			<stop  offset="1" style="stop-color:#FBB040"/>
		</linearGradient>
		<path class="st18" d="M135.13,87.14l10.04-26.1h2.45l-10.08,26.1H135.13z"/>
		<linearGradient id="SVGID_15_" gradientUnits="userSpaceOnUse" x1="98.0859" y1="75.623" x2="174.2217" y2="75.623">
			<stop  offset="0" style="stop-color:#ED1C24"/>
			<stop  offset="1" style="stop-color:#FBB040"/>
		</linearGradient>
		<path class="st19" d="M174.22,77.14l-16.7,8.57v-2.48l14.18-7.05v-0.07l-14.18-7.06v-2.48l16.7,8.57V77.14z"/>
	</g>
</g>
<polygon class="st20" points="112.69,361.45 98.75,373.01 81.77,366.72 78.73,348.87 92.67,337.31 109.65,343.6 "/>
<polygon class="st21" points="169.71,331.29 126.11,330.08 105.35,291.72 128.2,254.56 171.8,255.77 192.56,294.13 "/>
<polygon class="st22" points="70.61,333.49 46.91,345.59 24.59,331.13 25.95,304.56 49.64,292.46 71.97,306.92 "/>
<g>
	<linearGradient id="SVGID_16_" gradientUnits="userSpaceOnUse" x1="209.3728" y1="36.7925" x2="228.5947" y2="36.7925">
		<stop  offset="0" style="stop-color:#E64425"/>
		<stop  offset="0.8096" style="stop-color:#1C75BC"/>
	</linearGradient>
	<path class="st23" d="M223.48,39.61c2.55-3.48,1.8-8.36-1.68-10.91s-8.36-1.8-10.91,1.68c-2.55,3.48-1.8,8.36,1.68,10.91
		c2.75,2.01,6.49,2.01,9.24,0h0c0.04,0.05,0.07,0.09,0.12,0.14l4.62,4.62c0.47,0.47,1.23,0.47,1.7,0c0.47-0.47,0.47-1.23,0-1.7
		l-4.62-4.62C223.58,39.68,223.53,39.64,223.48,39.61L223.48,39.61z M223.79,34.99c0,3.65-2.96,6.61-6.61,6.61
		c-3.65,0-6.61-2.96-6.61-6.61s2.96-6.61,6.61-6.61C220.83,28.38,223.79,31.34,223.79,34.99z"/>
</g>
<linearGradient id="SVGID_17_" gradientUnits="userSpaceOnUse" x1="616.016" y1="53.4591" x2="699.8915" y2="53.4591">
	<stop  offset="0" style="stop-color:#F9ED32"/>
	<stop  offset="1" style="stop-color:#ED1C24"/>
	<stop  offset="1" style="stop-color:#DA1C5C"/>
</linearGradient>
<path class="st24" d="M657.93,100.76c-1.26,0-2.53-0.34-3.64-0.98l-11.58-6.85c-1.73-0.98-0.88-1.31-0.32-1.5
	c2.31-0.81,2.78-0.98,5.24-2.38c0.26-0.15,0.6-0.09,0.86,0.08l8.9,5.28c0.32,0.19,0.77,0.19,1.07,0l34.67-20.01
	c0.32-0.19,0.53-0.56,0.53-0.94V33.42c0-0.39-0.21-0.75-0.54-0.96l-34.65-19.99c-0.32-0.19-0.75-0.19-1.07,0l-34.64,20.01
	c-0.34,0.19-0.54,0.56-0.54,0.96v40c0,0.38,0.21,0.75,0.54,0.92l9.5,5.48c5.16,2.57,8.32-0.45,8.32-3.51v-39.5
	c0-0.56,0.45-0.99,1.01-0.99h4.39c0.54,0,1.01,0.43,1.01,0.99v39.52c0,6.87-3.75,10.81-10.27,10.81c-2.01,0-3.59,0-7.98-2.18
	l-9.09-5.24c-2.25-1.3-3.64-3.72-3.64-6.33v-40c0-2.59,1.39-5.03,3.64-6.33l34.64-20.01c2.2-1.24,5.11-1.24,7.28,0l34.67,20.03
	c2.25,1.3,3.64,3.72,3.64,6.33v40c0,2.59-1.39,5.01-3.64,6.33l-34.67,20.01C660.47,100.42,659.21,100.76,657.93,100.76z
	 M685.92,61.32c0-7.49-5.07-9.48-15.71-10.89c-10.78-1.43-11.86-2.16-11.86-4.67c0-2.08,0.92-4.86,8.9-4.86
	c7.11,0,9.74,1.54,10.83,6.35c0.09,0.45,0.51,0.79,0.98,0.79h4.51c0.28,0,0.54-0.11,0.73-0.32s0.28-0.49,0.26-0.77
	c-0.69-8.28-6.19-12.13-17.31-12.13c-9.89,0-15.79,4.17-15.79,11.17c0,7.58,5.88,9.69,15.36,10.63c11.36,1.11,12.24,2.78,12.24,5.01
	c0,3.87-3.12,5.52-10.42,5.52c-9.18,0-11.19-2.31-11.86-6.87c-0.08-0.49-0.49-0.84-0.99-0.84h-4.49c-0.56,0-0.99,0.45-0.99,0.99
	c0,5.84,3.17,12.8,18.36,12.8C679.62,73.2,685.92,68.87,685.92,61.32L685.92,61.32z"/>
<path class="st25" d="M349.62,26.05h5.38v5.38h-5.38V44.9c0,2.97-2.41,5.38-5.38,5.38c2.97,0,5.38,2.41,5.38,5.38v13.46h5.38v5.38
	h-5.38c-2.88-0.73-5.38-2.42-5.38-5.38V58.36c0-2.97-2.41-5.38-5.38-5.38h-2.69v-5.38h2.69c2.97,0,5.38-2.41,5.38-5.38V31.44
	C344.24,28.46,346.65,26.05,349.62,26.05 M387.32,26.05c2.97,0,5.38,2.41,5.38,5.38v10.77c0,2.97,2.41,5.38,5.38,5.38h2.69v5.38
	h-2.69c-2.97,0-5.38,2.41-5.38,5.38v10.77c0,2.97-2.41,5.38-5.38,5.38h-5.38v-5.38h5.38V55.67c0-2.97,2.41-5.38,5.38-5.38
	c-2.97,0-5.38-2.41-5.38-5.38V31.44h-5.38v-5.38H387.32 M368.47,58.36c1.49,0,2.69,1.21,2.69,2.69c0,1.49-1.21,2.69-2.69,2.69
	c-1.49,0-2.69-1.21-2.69-2.69C365.78,59.57,366.98,58.36,368.47,58.36 M357.7,58.36c1.49,0,2.69,1.21,2.69,2.69
	c0,1.49-1.21,2.69-2.69,2.69c-1.49,0-2.69-1.21-2.69-2.69C355.01,59.57,356.21,58.36,357.7,58.36 M379.24,58.36
	c1.49,0,2.69,1.21,2.69,2.69c0,1.49-1.21,2.69-2.69,2.69c-1.49,0-2.69-1.21-2.69-2.69C376.55,59.57,377.75,58.36,379.24,58.36z"/>
<path class="st26" d="M607.47,118.4v-10.54c1.84-0.31,3.25-1.9,3.25-3.84c0-2.15-1.75-3.9-3.9-3.9c-1.93,0-3.53,1.41-3.84,3.25
	h-10.54c-0.31-1.84-1.9-3.25-3.84-3.25c-2.15,0-3.9,1.75-3.9,3.9c0,1.93,1.41,3.53,3.25,3.84v10.54c-1.84,0.31-3.25,1.9-3.25,3.84
	c0,2.15,1.75,3.9,3.9,3.9c1.93,0,3.52-1.41,3.84-3.25h10.54c0.31,1.84,1.9,3.25,3.84,3.25c2.15,0,3.9-1.75,3.9-3.9
	C610.73,120.3,609.32,118.71,607.47,118.4z M606.82,101.42c1.44,0,2.6,1.17,2.6,2.6c0,1.44-1.16,2.6-2.6,2.6
	c-1.44,0-2.6-1.16-2.6-2.6C604.22,102.59,605.39,101.42,606.82,101.42z M586.01,104.03c0-1.44,1.16-2.6,2.6-2.6
	c1.44,0,2.6,1.17,2.6,2.6c0,1.44-1.16,2.6-2.6,2.6C587.18,106.63,586.01,105.46,586.01,104.03z M588.62,124.84
	c-1.44,0-2.6-1.16-2.6-2.6s1.16-2.6,2.6-2.6c1.44,0,2.6,1.17,2.6,2.6C591.22,123.67,590.05,124.84,588.62,124.84z M602.99,121.58
	h-10.54c-0.28-1.63-1.55-2.91-3.19-3.19v-10.54c1.63-0.28,2.91-1.56,3.19-3.19h10.54c0.28,1.63,1.55,2.91,3.19,3.19v10.54
	C604.54,118.67,603.26,119.95,602.99,121.58z M606.82,124.84c-1.44,0-2.6-1.16-2.6-2.6s1.16-2.6,2.6-2.6c1.44,0,2.6,1.17,2.6,2.6
	C609.43,123.67,608.26,124.84,606.82,124.84z"/>
<path class="st27" d="M527.7,31.98l-7.21-7.68c1.13-1.49,1.07-3.61-0.25-5.02c-1.47-1.57-3.94-1.65-5.52-0.18
	c-1.41,1.32-1.61,3.44-0.57,5l-7.68,7.21c-1.49-1.13-3.61-1.07-5.02,0.25c-1.57,1.47-1.65,3.94-0.18,5.52
	c1.32,1.41,3.44,1.61,5,0.57l7.21,7.68c-1.13,1.49-1.07,3.61,0.25,5.02c1.47,1.57,3.94,1.65,5.52,0.18c1.41-1.32,1.6-3.44,0.57-5
	l7.68-7.21c1.49,1.13,3.61,1.07,5.02-0.25c1.57-1.48,1.65-3.94,0.18-5.52C531.38,31.14,529.26,30.95,527.7,31.98z M515.61,20.05
	c1.05-0.98,2.69-0.93,3.68,0.12c0.98,1.05,0.93,2.69-0.12,3.68c-1.05,0.98-2.69,0.93-3.68-0.12S514.57,21.03,515.61,20.05z
	 M502.22,36.18c-0.98-1.05-0.93-2.69,0.12-3.68c1.05-0.98,2.69-0.93,3.68,0.12c0.98,1.05,0.93,2.69-0.12,3.68
	C504.85,37.28,503.2,37.23,502.22,36.18z M518.36,49.58c-1.05,0.98-2.69,0.93-3.68-0.12c-0.98-1.05-0.93-2.69,0.12-3.68
	c1.05-0.98,2.69-0.93,3.68,0.12C519.46,46.95,519.4,48.6,518.36,49.58z M526.61,37.37l-7.68,7.21c-1.32-1-3.13-1.06-4.5-0.14
	l-7.21-7.68c1-1.32,1.06-3.12,0.14-4.5l7.68-7.21c1.32,1,3.13,1.06,4.5,0.14l7.21,7.68C525.75,34.19,525.7,36,526.61,37.37z
	 M531.63,37.12c-1.05,0.98-2.69,0.93-3.68-0.12c-0.98-1.05-0.93-2.69,0.12-3.68c1.05-0.98,2.69-0.93,3.68,0.12
	C532.73,34.49,532.68,36.14,531.63,37.12z"/>
<path class="st28" d="M694.6,138.55l4.92-9.32c1.78,0.58,3.76-0.17,4.67-1.87c1.01-1.91,0.28-4.27-1.63-5.27
	c-1.71-0.9-3.77-0.4-4.91,1.08l-9.32-4.92c0.59-1.78-0.16-3.76-1.87-4.67c-1.91-1.01-4.27-0.28-5.27,1.63
	c-0.9,1.71-0.4,3.77,1.08,4.91l-4.92,9.32c-1.78-0.59-3.76,0.16-4.67,1.87c-1.01,1.91-0.28,4.27,1.63,5.27
	c1.71,0.9,3.77,0.4,4.91-1.08l9.32,4.92c-0.59,1.78,0.16,3.76,1.87,4.67c1.91,1,4.26,0.28,5.27-1.63
	C696.59,141.75,696.09,139.69,694.6,138.55z M701.96,123.24c1.27,0.67,1.75,2.24,1.08,3.52c-0.67,1.27-2.24,1.76-3.52,1.08
	s-1.76-2.24-1.08-3.52S700.69,122.57,701.96,123.24z M682.34,115.82c0.67-1.27,2.24-1.76,3.52-1.08c1.27,0.67,1.75,2.24,1.08,3.52
	c-0.67,1.27-2.24,1.76-3.52,1.08S681.67,117.09,682.34,115.82z M674.92,135.43c-1.27-0.67-1.76-2.24-1.08-3.52
	c0.67-1.27,2.24-1.76,3.52-1.08c1.27,0.67,1.75,2.24,1.08,3.52C677.76,135.62,676.19,136.1,674.92,135.43z M689.15,139.27
	l-9.32-4.92c0.52-1.57-0.01-3.3-1.33-4.31l4.92-9.32c1.57,0.52,3.3-0.02,4.3-1.33l9.32,4.92c-0.52,1.57,0.01,3.3,1.33,4.31
	l-4.92,9.32C691.88,137.42,690.15,137.96,689.15,139.27z M691.02,143.94c-1.27-0.67-1.76-2.24-1.08-3.52
	c0.67-1.27,2.24-1.76,3.52-1.08c1.27,0.67,1.75,2.24,1.08,3.52C693.86,144.12,692.29,144.61,691.02,143.94z"/>
</svg>
