<?xml version="1.0" encoding="utf-8"?>
<!-- Generator: Adobe Illustrator 25.3.0, SVG Export Plug-In . SVG Version: 6.00 Build 0)  -->
<svg version="1.1" id="Layer_1" xmlns="http://www.w3.org/2000/svg" xmlns:xlink="http://www.w3.org/1999/xlink" x="0px" y="0px"
	 viewBox="0 0 760 370" style="enable-background:new 0 0 760 370;" xml:space="preserve">
<style type="text/css">
	.st0{opacity:0.67;fill:url(#SVGID_1_);}
	.st1{opacity:0.67;fill:url(#SVGID_2_);}
	.st2{opacity:0.81;}
	.st3{opacity:0.67;fill:url(#SVGID_3_);}
	.st4{opacity:0.67;fill:url(#SVGID_4_);}
	.st5{opacity:0.56;}
	.st6{opacity:0.67;fill:#2E3192;}
	.st7{opacity:0.6;fill:none;stroke:#ED1C24;stroke-width:3;stroke-linecap:round;stroke-linejoin:round;}
	.st8{opacity:0.6;fill:#ED1C24;}
	.st9{opacity:0.6;fill:none;stroke:url(#SVGID_5_);stroke-width:3;stroke-linecap:round;stroke-linejoin:round;}
	.st10{opacity:0.6;fill:url(#SVGID_6_);}
	.st11{opacity:0.67;fill:url(#SVGID_7_);}
	.st12{opacity:0.67;fill:url(#SVGID_8_);}
	.st13{opacity:0.6;}
	.st14{opacity:0.67;fill:url(#SVGID_9_);}
	.st15{opacity:0.67;fill:url(#SVGID_10_);}
	.st16{fill:#ED1C24;}
	.st17{opacity:0.54;fill:#009444;}
	.st18{fill:url(#SVGID_11_);}
	.st19{opacity:0.78;fill:url(#SVGID_12_);}
	.st20{fill:#010101;}
	.st21{fill:#DD1E34;}
	.st22{fill:#C32033;}
	.st23{fill:#FFFFFF;}
	.st24{fill:url(#SVGID_13_);}
</style>
<g>
	<path d="M34.99,178.33h6.26v43.28h20.74v5.26h-27V178.33z"/>
	<path d="M71.28,210.59c0.14,8.57,5.62,12.1,11.95,12.1c4.54,0,7.27-0.79,9.65-1.8l1.08,4.54c-2.23,1.01-6.05,2.16-11.59,2.16
		c-10.73,0-17.14-7.06-17.14-17.57s6.19-18.79,16.35-18.79c11.38,0,14.4,10.01,14.4,16.42c0,1.3-0.14,2.3-0.22,2.95H71.28z
		 M89.86,206.06c0.07-4.03-1.66-10.3-8.79-10.3c-6.41,0-9.22,5.9-9.72,10.3H89.86z"/>
	<path d="M123.12,226.87l-0.5-4.39h-0.22c-1.94,2.74-5.69,5.18-10.66,5.18c-7.06,0-10.66-4.97-10.66-10.01
		c0-8.42,7.49-13.03,20.95-12.96v-0.72c0-2.88-0.79-8.06-7.92-8.06c-3.24,0-6.62,1.01-9.07,2.59l-1.44-4.18
		c2.88-1.87,7.06-3.1,11.45-3.1c10.66,0,13.25,7.27,13.25,14.26v13.03c0,3.02,0.14,5.98,0.58,8.35H123.12z M122.18,209.08
		c-6.91-0.14-14.76,1.08-14.76,7.85c0,4.1,2.74,6.05,5.98,6.05c4.54,0,7.42-2.88,8.42-5.83c0.22-0.65,0.36-1.37,0.36-2.02V209.08z"
		/>
	<path d="M138.52,202.89c0-4.1-0.07-7.63-0.29-10.87h5.54l0.22,6.84h0.29c1.58-4.68,5.4-7.63,9.65-7.63c0.72,0,1.22,0.07,1.8,0.22
		v5.98c-0.65-0.14-1.3-0.22-2.16-0.22c-4.46,0-7.63,3.38-8.5,8.14c-0.14,0.86-0.29,1.87-0.29,2.95v18.58h-6.26V202.89z"/>
	<path d="M162.36,201.45c0-3.6-0.07-6.55-0.29-9.43h5.62l0.36,5.76h0.14c1.73-3.31,5.76-6.55,11.52-6.55
		c4.82,0,12.31,2.88,12.31,14.83v20.81h-6.34v-20.09c0-5.62-2.09-10.3-8.07-10.3c-4.18,0-7.42,2.95-8.5,6.48
		c-0.29,0.79-0.43,1.87-0.43,2.95v20.95h-6.34V201.45z"/>
</g>
<g>
	<linearGradient id="SVGID_1_" gradientUnits="userSpaceOnUse" x1="744.6006" y1="203.1777" x2="769.4774" y2="203.1777">
		<stop  offset="0" style="stop-color:#FFF33B"/>
		<stop  offset="0.0595" style="stop-color:#FFE029"/>
		<stop  offset="0.1303" style="stop-color:#FFD217"/>
		<stop  offset="0.2032" style="stop-color:#FEC90E"/>
		<stop  offset="0.2809" style="stop-color:#FDC70C"/>
		<stop  offset="0.6685" style="stop-color:#F3903F"/>
		<stop  offset="0.8876" style="stop-color:#ED683C"/>
		<stop  offset="1" style="stop-color:#E93E3A"/>
	</linearGradient>
	<path class="st0" d="M758.42,191.57l8.16,4.85c2.82,1.67,3.74,5.32,2.07,8.13l-4.85,8.16c-1.67,2.82-5.32,3.74-8.13,2.07
		l-8.16-4.85c-2.82-1.67-3.74-5.32-2.07-8.13l4.85-8.16C751.96,190.83,755.6,189.9,758.42,191.57z"/>
	<linearGradient id="SVGID_2_" gradientUnits="userSpaceOnUse" x1="750.6799" y1="201.669" x2="775.3994" y2="201.669">
		<stop  offset="0" style="stop-color:#FFF33B"/>
		<stop  offset="0.0595" style="stop-color:#FFE029"/>
		<stop  offset="0.1303" style="stop-color:#FFD217"/>
		<stop  offset="0.2032" style="stop-color:#FEC90E"/>
		<stop  offset="0.2809" style="stop-color:#FDC70C"/>
		<stop  offset="0.6685" style="stop-color:#F3903F"/>
		<stop  offset="0.8876" style="stop-color:#ED683C"/>
		<stop  offset="1" style="stop-color:#E93E3A"/>
	</linearGradient>
	<path class="st1" d="M764.41,190.14l8.11,4.82c2.8,1.66,3.72,5.28,2.06,8.08l-4.82,8.11c-1.66,2.8-5.28,3.72-8.08,2.06l-8.11-4.82
		c-2.8-1.66-3.72-5.28-2.06-8.08l4.82-8.11C757.99,189.4,761.61,188.47,764.41,190.14 M763.2,192.16c-1.68-1-3.85-0.45-4.85,1.23
		l-4.82,8.11c-1,1.68-0.45,3.85,1.23,4.85l8.11,4.82c1.68,1,3.85,0.45,4.85-1.23l4.82-8.11c1-1.68,0.45-3.85-1.23-4.85L763.2,192.16
		z"/>
</g>
<g class="st2">
	<linearGradient id="SVGID_3_" gradientUnits="userSpaceOnUse" x1="120.6013" y1="38.1277" x2="157.4745" y2="38.1277">
		<stop  offset="0" style="stop-color:#2B3990"/>
		<stop  offset="1" style="stop-color:#ED1C24"/>
	</linearGradient>
	<path class="st3" d="M133.66,19.78l15.39,2.06c5.31,0.71,9.04,5.6,8.33,10.91l-2.06,15.39c-0.71,5.31-5.6,9.04-10.91,8.33
		l-15.39-2.06c-5.31-0.71-9.04-5.6-8.33-10.91l2.06-15.39C123.46,22.8,128.35,19.07,133.66,19.78z"/>
	<linearGradient id="SVGID_4_" gradientUnits="userSpaceOnUse" x1="128.7803" y1="32.0048" x2="165.4203" y2="32.0048">
		<stop  offset="0" style="stop-color:#2B3990"/>
		<stop  offset="1" style="stop-color:#ED1C24"/>
	</linearGradient>
	<path class="st4" d="M141.76,13.77l15.3,2.05c5.28,0.71,8.99,5.56,8.28,10.84l-2.05,15.3c-0.71,5.28-5.56,8.99-10.84,8.28
		l-15.3-2.05c-5.28-0.71-8.99-5.56-8.28-10.84l2.05-15.3C131.62,16.77,136.48,13.06,141.76,13.77 M141.24,17.6
		c-3.17-0.42-6.08,1.79-6.5,4.97l-2.05,15.3c-0.42,3.17,1.79,6.08,4.97,6.5l15.3,2.05c3.17,0.42,6.08-1.79,6.5-4.97l2.05-15.3
		c0.42-3.17-1.79-6.08-4.97-6.5L141.24,17.6z"/>
</g>
<g class="st5">
	<path class="st6" d="M666.18,209.02l11.43,6.79c3.94,2.34,5.24,7.45,2.9,11.39l-6.79,11.43c-2.34,3.94-7.45,5.24-11.39,2.9
		l-11.43-6.79c-3.94-2.34-5.24-7.45-2.9-11.39l6.79-11.43C657.13,207.97,662.23,206.68,666.18,209.02z"/>
	<path class="st6" d="M674.57,207.01l11.36,6.75c3.92,2.33,5.21,7.4,2.88,11.32l-6.75,11.36c-2.33,3.92-7.4,5.21-11.32,2.88
		l-11.36-6.75c-3.92-2.33-5.21-7.4-2.88-11.32l6.75-11.36C665.58,205.97,670.65,204.68,674.57,207.01 M672.88,209.85
		c-2.36-1.4-5.39-0.63-6.79,1.73l-6.75,11.36c-1.4,2.36-0.63,5.39,1.73,6.79l11.36,6.75c2.36,1.4,5.39,0.63,6.79-1.73l6.75-11.36
		c1.4-2.36,0.63-5.39-1.73-6.79L672.88,209.85z"/>
</g>
<g>
	<polygon class="st7" points="148.15,339.88 145.21,361.75 128.5,347.35 	"/>
	<path class="st8" d="M117.07,356.94l19.56,15.96c0.18,0.08,0.36,0.16,0.54,0.24c0.8,0.14,1.54-0.29,1.69-1.09l4.03-24.93
		c0.21-0.23,0.11-0.49,0.01-0.75c-0.3-0.79-1.02-1.11-1.81-0.81l-23.59,8.96c-0.26,0.1-0.39,0.15-0.61,0.38
		C116.39,355.55,116.56,356.38,117.07,356.94z"/>
</g>
<g>
	<polygon class="st7" points="678.13,121.89 695.04,107.72 697.67,129.63 	"/>
	<path class="st8" d="M712.58,130.26l-3.68-24.98c-0.08-0.18-0.16-0.36-0.24-0.55c-0.5-0.65-1.33-0.83-1.98-0.33l-19.78,15.69
		c-0.31,0.03-0.42,0.29-0.52,0.55c-0.31,0.78,0.01,1.51,0.79,1.82l23.46,9.29c0.26,0.1,0.39,0.15,0.7,0.13
		C712.14,131.74,712.58,131.01,712.58,130.26z"/>
</g>
<g>
	
		<linearGradient id="SVGID_5_" gradientUnits="userSpaceOnUse" x1="-313.0915" y1="337.2512" x2="-290.5519" y2="337.2512" gradientTransform="matrix(-0.9443 -0.329 0.329 -0.9443 76.8742 252.6764)">
		<stop  offset="0" style="stop-color:#FFF33B"/>
		<stop  offset="0.0595" style="stop-color:#FFE029"/>
		<stop  offset="0.1303" style="stop-color:#FFD217"/>
		<stop  offset="0.2032" style="stop-color:#FEC90E"/>
		<stop  offset="0.2809" style="stop-color:#FDC70C"/>
		<stop  offset="0.6685" style="stop-color:#F3903F"/>
		<stop  offset="0.8876" style="stop-color:#ED683C"/>
		<stop  offset="1" style="stop-color:#E93E3A"/>
	</linearGradient>
	<polygon class="st9" points="483.12,33.66 462.49,41.47 467.22,19.92 	"/>
	
		<linearGradient id="SVGID_6_" gradientUnits="userSpaceOnUse" x1="-303.4583" y1="336.5746" x2="-277.1422" y2="336.5746" gradientTransform="matrix(-0.9443 -0.329 0.329 -0.9443 76.8742 252.6764)">
		<stop  offset="0" style="stop-color:#FFF33B"/>
		<stop  offset="0.0595" style="stop-color:#FFE029"/>
		<stop  offset="0.1303" style="stop-color:#FFD217"/>
		<stop  offset="0.2032" style="stop-color:#FEC90E"/>
		<stop  offset="0.2809" style="stop-color:#FDC70C"/>
		<stop  offset="0.6685" style="stop-color:#F3903F"/>
		<stop  offset="0.8876" style="stop-color:#ED683C"/>
		<stop  offset="1" style="stop-color:#E93E3A"/>
	</linearGradient>
	<path class="st10" d="M453.34,14.43l-4.74,24.8c0.01,0.2,0.03,0.4,0.04,0.59c0.26,0.78,0.98,1.22,1.76,0.96l23.84-8.31
		c0.3,0.08,0.49-0.14,0.67-0.35c0.55-0.64,0.49-1.43-0.15-1.98l-19.1-16.49c-0.21-0.18-0.32-0.27-0.62-0.35
		C454.24,13.17,453.59,13.71,453.34,14.43z"/>
</g>
<g>
	<polygon class="st7" points="567.8,338.94 589.8,337.27 579.18,356.6 	"/>
	<path class="st8" d="M590.94,365.8l11.55-22.45c0.04-0.19,0.08-0.39,0.13-0.58c-0.03-0.82-0.6-1.45-1.42-1.42l-25.22,1.24
		c-0.27-0.16-0.51-0.01-0.74,0.14c-0.71,0.46-0.88,1.23-0.42,1.94l13.66,21.22c0.15,0.24,0.23,0.35,0.5,0.51
		C589.72,366.75,590.5,366.41,590.94,365.8z"/>
</g>
<g>
	<linearGradient id="SVGID_7_" gradientUnits="userSpaceOnUse" x1="615.4683" y1="41.3578" x2="652.3414" y2="41.3578">
		<stop  offset="0" style="stop-color:#ED1C24"/>
		<stop  offset="1" style="stop-color:#92278F"/>
	</linearGradient>
	<path class="st11" d="M628.53,23.01l15.39,2.06c5.31,0.71,9.04,5.6,8.33,10.91l-2.06,15.39c-0.71,5.31-5.6,9.04-10.91,8.33
		l-15.39-2.06c-5.31-0.71-9.04-5.6-8.33-10.91l2.06-15.39C618.33,26.03,623.21,22.3,628.53,23.01z"/>
	<linearGradient id="SVGID_8_" gradientUnits="userSpaceOnUse" x1="623.6473" y1="35.2349" x2="660.2873" y2="35.2349">
		<stop  offset="0" style="stop-color:#ED1C24"/>
		<stop  offset="1" style="stop-color:#92278F"/>
	</linearGradient>
	<path class="st12" d="M636.62,17l15.3,2.05c5.28,0.71,8.99,5.56,8.28,10.84l-2.05,15.3c-0.71,5.28-5.56,8.99-10.84,8.28l-15.3-2.05
		c-5.28-0.71-8.99-5.56-8.28-10.84l2.05-15.3C626.49,20,631.34,16.29,636.62,17 M636.11,20.83c-3.17-0.42-6.08,1.79-6.5,4.97
		l-2.05,15.3c-0.42,3.17,1.79,6.08,4.97,6.5l15.3,2.05c3.17,0.42,6.08-1.79,6.5-4.97l2.05-15.3c0.42-3.17-1.79-6.08-4.97-6.5
		L636.11,20.83z"/>
</g>
<g class="st13">
	<linearGradient id="SVGID_9_" gradientUnits="userSpaceOnUse" x1="45.7031" y1="316.4746" x2="86.6839" y2="316.4746">
		<stop  offset="0" style="stop-color:#2E3192"/>
		<stop  offset="1" style="stop-color:#92278F"/>
	</linearGradient>
	<path class="st14" d="M49.98,306.34l12.87-8.7c4.44-3,10.48-1.83,13.48,2.61l8.7,12.87c3,4.44,1.83,10.48-2.61,13.48l-12.87,8.7
		c-4.44,3-10.48,1.83-13.48-2.61l-8.7-12.87C44.37,315.38,45.54,309.35,49.98,306.34z"/>
	<linearGradient id="SVGID_10_" gradientUnits="userSpaceOnUse" x1="47.7838" y1="306.5406" x2="88.5054" y2="306.5406">
		<stop  offset="0" style="stop-color:#2E3192"/>
		<stop  offset="1" style="stop-color:#92278F"/>
	</linearGradient>
	<path class="st15" d="M52.03,296.47l12.79-8.64c4.41-2.98,10.41-1.82,13.39,2.59l8.64,12.79c2.98,4.41,1.82,10.41-2.59,13.39
		l-12.79,8.64c-4.41,2.98-10.41,1.82-13.39-2.59l-8.64-12.79C46.46,305.46,47.62,299.46,52.03,296.47 M54.19,299.67
		c-2.65,1.79-3.35,5.38-1.55,8.04l8.64,12.79c1.79,2.65,5.38,3.35,8.04,1.55l12.79-8.64c2.65-1.79,3.35-5.38,1.55-8.04l-8.64-12.79
		c-1.79-2.65-5.38-3.35-8.04-1.55L54.19,299.67z"/>
</g>
<g>
	<g>
		<path class="st16" d="M227.65,212.39l-5.04,15.27h-6.48l16.49-48.53h7.56l16.56,48.53h-6.7l-5.18-15.27H227.65z M243.56,207.49
			l-4.75-13.97c-1.08-3.17-1.8-6.05-2.52-8.86h-0.14c-0.72,2.88-1.51,5.83-2.45,8.78l-4.75,14.04H243.56z"/>
		<path class="st16" d="M263.44,202.24c0-3.6-0.07-6.55-0.29-9.43h5.62l0.36,5.76h0.14c1.73-3.31,5.76-6.55,11.52-6.55
			c4.82,0,12.31,2.88,12.31,14.83v20.81h-6.34v-20.09c0-5.62-2.09-10.3-8.07-10.3c-4.18,0-7.42,2.95-8.5,6.48
			c-0.29,0.79-0.43,1.87-0.43,2.95v20.95h-6.34V202.24z"/>
		<path class="st16" d="M333.42,192.8c-0.14,2.52-0.29,5.33-0.29,9.58v20.23c0,7.99-1.58,12.89-4.97,15.91
			c-3.38,3.17-8.28,4.18-12.67,4.18c-4.18,0-8.79-1.01-11.59-2.88l1.58-4.82c2.3,1.44,5.9,2.74,10.22,2.74
			c6.48,0,11.23-3.38,11.23-12.17v-3.89h-0.14c-1.94,3.24-5.69,5.83-11.09,5.83c-8.64,0-14.83-7.34-14.83-16.99
			c0-11.81,7.7-18.51,15.7-18.51c6.05,0,9.36,3.17,10.87,6.05h0.14l0.29-5.26H333.42z M326.87,206.56c0-1.08-0.07-2.02-0.36-2.88
			c-1.15-3.67-4.25-6.7-8.86-6.7c-6.05,0-10.37,5.11-10.37,13.18c0,6.84,3.46,12.53,10.3,12.53c3.89,0,7.42-2.45,8.79-6.48
			c0.36-1.08,0.5-2.3,0.5-3.38V206.56z"/>
		<path class="st16" d="M372.81,218.15c0,3.6,0.07,6.77,0.29,9.5h-5.62l-0.36-5.69h-0.14c-1.66,2.81-5.33,6.48-11.52,6.48
			c-5.47,0-12.03-3.02-12.03-15.27V192.8h6.34v19.3c0,6.62,2.02,11.09,7.78,11.09c4.25,0,7.2-2.95,8.35-5.76
			c0.36-0.94,0.58-2.09,0.58-3.24V192.8h6.34V218.15z"/>
		<path class="st16" d="M383.31,176.53h6.34v51.12h-6.34V176.53z"/>
		<path class="st16" d="M419.6,227.66l-0.5-4.39h-0.22c-1.94,2.74-5.69,5.18-10.66,5.18c-7.06,0-10.66-4.97-10.66-10.01
			c0-8.42,7.49-13.03,20.95-12.96v-0.72c0-2.88-0.79-8.06-7.92-8.06c-3.24,0-6.62,1.01-9.07,2.59l-1.44-4.18
			c2.88-1.87,7.06-3.1,11.45-3.1c10.66,0,13.25,7.27,13.25,14.26v13.03c0,3.02,0.14,5.98,0.58,8.35H419.6z M418.67,209.87
			c-6.91-0.14-14.76,1.08-14.76,7.85c0,4.1,2.74,6.05,5.98,6.05c4.54,0,7.42-2.88,8.42-5.83c0.22-0.65,0.36-1.37,0.36-2.02V209.87z"
			/>
		<path class="st16" d="M435.01,203.68c0-4.1-0.07-7.63-0.29-10.87h5.54l0.22,6.84h0.29c1.58-4.68,5.4-7.63,9.65-7.63
			c0.72,0,1.22,0.07,1.8,0.22v5.98c-0.65-0.14-1.3-0.22-2.16-0.22c-4.46,0-7.63,3.38-8.5,8.14c-0.14,0.86-0.29,1.87-0.29,2.95v18.58
			h-6.26V203.68z"/>
	</g>
	<g>
		<path class="st16" d="M227.65,212.39l-5.04,15.27h-6.48l16.49-48.53h7.56l16.56,48.53h-6.7l-5.18-15.27H227.65z M243.56,207.49
			l-4.75-13.97c-1.08-3.17-1.8-6.05-2.52-8.86h-0.14c-0.72,2.88-1.51,5.83-2.45,8.78l-4.75,14.04H243.56z"/>
		<path class="st16" d="M263.44,202.24c0-3.6-0.07-6.55-0.29-9.43h5.62l0.36,5.76h0.14c1.73-3.31,5.76-6.55,11.52-6.55
			c4.82,0,12.31,2.88,12.31,14.83v20.81h-6.34v-20.09c0-5.62-2.09-10.3-8.07-10.3c-4.18,0-7.42,2.95-8.5,6.48
			c-0.29,0.79-0.43,1.87-0.43,2.95v20.95h-6.34V202.24z"/>
		<path class="st16" d="M333.42,192.8c-0.14,2.52-0.29,5.33-0.29,9.58v20.23c0,7.99-1.58,12.89-4.97,15.91
			c-3.38,3.17-8.28,4.18-12.67,4.18c-4.18,0-8.79-1.01-11.59-2.88l1.58-4.82c2.3,1.44,5.9,2.74,10.22,2.74
			c6.48,0,11.23-3.38,11.23-12.17v-3.89h-0.14c-1.94,3.24-5.69,5.83-11.09,5.83c-8.64,0-14.83-7.34-14.83-16.99
			c0-11.81,7.7-18.51,15.7-18.51c6.05,0,9.36,3.17,10.87,6.05h0.14l0.29-5.26H333.42z M326.87,206.56c0-1.08-0.07-2.02-0.36-2.88
			c-1.15-3.67-4.25-6.7-8.86-6.7c-6.05,0-10.37,5.11-10.37,13.18c0,6.84,3.46,12.53,10.3,12.53c3.89,0,7.42-2.45,8.79-6.48
			c0.36-1.08,0.5-2.3,0.5-3.38V206.56z"/>
		<path class="st16" d="M372.81,218.15c0,3.6,0.07,6.77,0.29,9.5h-5.62l-0.36-5.69h-0.14c-1.66,2.81-5.33,6.48-11.52,6.48
			c-5.47,0-12.03-3.02-12.03-15.27V192.8h6.34v19.3c0,6.62,2.02,11.09,7.78,11.09c4.25,0,7.2-2.95,8.35-5.76
			c0.36-0.94,0.58-2.09,0.58-3.24V192.8h6.34V218.15z"/>
		<path class="st16" d="M383.31,176.53h6.34v51.12h-6.34V176.53z"/>
		<path class="st16" d="M419.6,227.66l-0.5-4.39h-0.22c-1.94,2.74-5.69,5.18-10.66,5.18c-7.06,0-10.66-4.97-10.66-10.01
			c0-8.42,7.49-13.03,20.95-12.96v-0.72c0-2.88-0.79-8.06-7.92-8.06c-3.24,0-6.62,1.01-9.07,2.59l-1.44-4.18
			c2.88-1.87,7.06-3.1,11.45-3.1c10.66,0,13.25,7.27,13.25,14.26v13.03c0,3.02,0.14,5.98,0.58,8.35H419.6z M418.67,209.87
			c-6.91-0.14-14.76,1.08-14.76,7.85c0,4.1,2.74,6.05,5.98,6.05c4.54,0,7.42-2.88,8.42-5.83c0.22-0.65,0.36-1.37,0.36-2.02V209.87z"
			/>
		<path class="st16" d="M435.01,203.68c0-4.1-0.07-7.63-0.29-10.87h5.54l0.22,6.84h0.29c1.58-4.68,5.4-7.63,9.65-7.63
			c0.72,0,1.22,0.07,1.8,0.22v5.98c-0.65-0.14-1.3-0.22-2.16-0.22c-4.46,0-7.63,3.38-8.5,8.14c-0.14,0.86-0.29,1.87-0.29,2.95v18.58
			h-6.26V203.68z"/>
	</g>
</g>
<circle class="st17" cx="287.06" cy="366.54" r="22.74"/>
<linearGradient id="SVGID_11_" gradientUnits="userSpaceOnUse" x1="535.9371" y1="284.7516" x2="589.9716" y2="284.7516">
	<stop  offset="0" style="stop-color:#ED1C24"/>
	<stop  offset="1" style="stop-color:#FBB040"/>
</linearGradient>
<path class="st18" d="M550.68,278.04l-8.05,6.71l8.05,6.71c1.11,0.92,1.26,2.57,0.33,3.68c-0.92,1.11-2.57,1.26-3.68,0.33
	l-10.46-8.72c-1.11-0.92-1.26-2.57-0.33-3.68c0.1-0.12,0.21-0.23,0.33-0.33l10.46-8.72c1.11-0.92,2.76-0.77,3.68,0.33
	C551.94,275.47,551.79,277.12,550.68,278.04z M589.03,282.74l-10.46-8.72c-1.11-0.92-2.76-0.77-3.68,0.33
	c-0.92,1.11-0.77,2.76,0.33,3.68l8.05,6.71l-8.05,6.71c-1.11,0.92-1.26,2.57-0.33,3.68c0.92,1.11,2.57,1.26,3.68,0.33l10.46-8.72
	c1.11-0.92,1.26-2.57,0.33-3.68C589.26,282.96,589.15,282.84,589.03,282.74z M570.82,263.12c-1.36-0.49-2.86,0.21-3.35,1.56
	l-13.94,38.35c-0.49,1.36,0.21,2.86,1.56,3.35c1.36,0.49,2.86-0.21,3.35-1.56c0,0,0,0,0,0l13.94-38.35
	C572.88,265.11,572.18,263.61,570.82,263.12C570.82,263.12,570.82,263.12,570.82,263.12z"/>
<linearGradient id="SVGID_12_" gradientUnits="userSpaceOnUse" x1="678.1293" y1="322.6795" x2="729.1108" y2="322.6795">
	<stop  offset="0" style="stop-color:#ED1C24"/>
	<stop  offset="1" style="stop-color:#FBB040"/>
</linearGradient>
<path class="st19" d="M678.56,308.26c0.03-0.03,0.06-0.06,0.09-0.1c0.01-0.01,0.02-0.03,0.04-0.04l5.66-5.66
	c0.74-0.74,1.93-0.74,2.67,0c0.74,0.74,0.74,1.93,0,2.67l-2.44,2.44h9.58c1.22,0,2.36,0.59,3.07,1.58l17.75,24.85l12.25,0
	c1.04,0,1.89,0.85,1.89,1.89s-0.85,1.89-1.89,1.89h-12.25c-1.22,0-2.36-0.59-3.07-1.58l-17.75-24.85l-9.58,0l2.44,2.44
	c0.74,0.74,0.74,1.93,0,2.67c-0.74,0.74-1.93,0.74-2.67,0l-5.66-5.66c-0.01-0.01-0.02-0.03-0.04-0.04c-0.03-0.03-0.06-0.06-0.09-0.1
	c-0.02-0.03-0.04-0.05-0.06-0.08c-0.02-0.02-0.03-0.04-0.05-0.07c-0.02-0.03-0.04-0.06-0.06-0.09c-0.01-0.02-0.03-0.04-0.04-0.07
	c-0.02-0.03-0.03-0.06-0.04-0.09c-0.01-0.02-0.02-0.05-0.03-0.07c-0.01-0.03-0.02-0.06-0.03-0.09c-0.01-0.03-0.02-0.06-0.03-0.08
	c-0.01-0.03-0.02-0.06-0.02-0.09c-0.01-0.03-0.02-0.06-0.02-0.09c-0.01-0.04-0.01-0.07-0.02-0.11c0-0.03-0.01-0.05-0.01-0.07
	c-0.01-0.12-0.01-0.25,0-0.37c0-0.03,0.01-0.05,0.01-0.07c0.01-0.04,0.01-0.07,0.02-0.11c0.01-0.03,0.01-0.06,0.02-0.09
	c0.01-0.03,0.01-0.06,0.02-0.09c0.01-0.03,0.02-0.06,0.03-0.08c0.01-0.03,0.02-0.06,0.03-0.09c0.01-0.03,0.02-0.05,0.03-0.07
	c0.01-0.03,0.03-0.06,0.04-0.09c0.01-0.02,0.03-0.04,0.04-0.07c0.02-0.03,0.04-0.06,0.06-0.09c0.02-0.02,0.03-0.05,0.05-0.07
	C678.52,308.32,678.54,308.29,678.56,308.26z M701.02,327.64c-0.85-0.61-2.03-0.41-2.63,0.44c0,0,0,0,0,0l-4.24,5.93h-9.58
	l2.44-2.44c0.74-0.74,0.74-1.93,0-2.67c-0.74-0.74-1.93-0.74-2.67,0l-5.66,5.66c-0.01,0.01-0.02,0.03-0.04,0.04
	c-0.03,0.03-0.06,0.06-0.09,0.1c-0.02,0.03-0.04,0.05-0.06,0.08c-0.02,0.02-0.03,0.04-0.05,0.07c-0.02,0.03-0.04,0.06-0.06,0.09
	c-0.01,0.02-0.03,0.04-0.04,0.07c-0.02,0.03-0.03,0.06-0.04,0.09c-0.01,0.02-0.02,0.05-0.03,0.07c-0.01,0.03-0.02,0.06-0.03,0.09
	c-0.01,0.03-0.02,0.06-0.03,0.08c-0.01,0.03-0.02,0.06-0.02,0.09c-0.01,0.03-0.02,0.06-0.02,0.09c-0.01,0.04-0.01,0.07-0.02,0.11
	c0,0.02-0.01,0.05-0.01,0.07c-0.01,0.12-0.01,0.25,0,0.37c0,0.03,0.01,0.05,0.01,0.07c0.01,0.04,0.01,0.07,0.02,0.11
	c0.01,0.03,0.01,0.06,0.02,0.09c0.01,0.03,0.01,0.06,0.02,0.09c0.01,0.03,0.02,0.06,0.03,0.08c0.01,0.03,0.02,0.06,0.03,0.09
	c0.01,0.03,0.02,0.05,0.03,0.07c0.01,0.03,0.03,0.06,0.04,0.09c0.01,0.02,0.03,0.04,0.04,0.07c0.02,0.03,0.04,0.06,0.06,0.09
	c0.02,0.02,0.03,0.05,0.05,0.07c0.02,0.03,0.04,0.05,0.06,0.08c0.03,0.03,0.06,0.06,0.09,0.1c0.01,0.01,0.02,0.03,0.04,0.04
	l5.66,5.66c0.74,0.74,1.93,0.74,2.67,0c0.74-0.74,0.74-1.93,0-2.67l-2.44-2.44h9.58c1.22,0,2.36-0.59,3.07-1.58l4.24-5.93
	C702.07,329.43,701.87,328.25,701.02,327.64L701.02,327.64z M708.11,317.72c0.85,0.61,2.03,0.41,2.63-0.44c0,0,0,0,0,0l4.24-5.93
	h12.25c1.04,0,1.89-0.85,1.89-1.89c0-1.04-0.85-1.89-1.89-1.89h-12.25c-1.22,0-2.36,0.59-3.07,1.58l-4.24,5.93
	C707.06,315.93,707.26,317.11,708.11,317.72z"/>
<path class="st20" d="M66.09,18.81H27.36c-0.56,0-1.02,0.46-1.02,1.02v38.73c0,0.56,0.46,1.02,1.02,1.02h14.27
	c0.56,0,1.02-0.46,1.02-1.02V35.11h23.44c0.56,0,1.02-0.46,1.02-1.02V19.82C67.1,19.26,66.65,18.81,66.09,18.81z M65.07,33.07h-7.13
	v-5.1c0-0.56-0.46-1.02-1.02-1.02c-0.56,0-1.02,0.46-1.02,1.02v5.1h-6.11v-5.1c0-0.56-0.46-1.02-1.02-1.02
	c-0.56,0-1.02,0.46-1.02,1.02v5.1h-5.1v-5.1c0-0.56-0.46-1.02-1.02-1.02c-0.56,0-1.02,0.46-1.02,1.02v5.1h-5.1
	c-0.56,0-1.02,0.46-1.02,1.02c0,0.56,0.46,1.02,1.02,1.02h5.1v5.1h-5.1c-0.56,0-1.02,0.46-1.02,1.02c0,0.56,0.46,1.02,1.02,1.02h5.1
	v6.11h-5.1c-0.56,0-1.02,0.46-1.02,1.02c0,0.56,0.46,1.02,1.02,1.02h5.1v7.13H28.38V20.84h36.69V33.07z"/>
<g>
	<g>
		<g>
			<polygon class="st21" points="562.95,67.8 562.95,67.8 562.95,67.8 518.62,83.61 525.38,142.24 562.95,163.05 562.95,163.05 
				562.95,163.05 600.53,142.24 607.29,83.61 			"/>
		</g>
		<polygon class="st22" points="562.95,67.8 562.95,78.38 562.95,78.33 562.95,126.57 562.95,126.57 562.95,163.05 562.95,163.05 
			600.53,142.24 607.29,83.61 		"/>
	</g>
	<path class="st23" d="M562.95,78.33l-27.72,62.15h10.33l5.57-13.91h23.52l5.57,13.91h10.33L562.95,78.33z M571.05,118h-16.19
		l8.1-19.48L571.05,118z"/>
</g>
<linearGradient id="SVGID_13_" gradientUnits="userSpaceOnUse" x1="94.2505" y1="92.5371" x2="148.1459" y2="92.5371">
	<stop  offset="0" style="stop-color:#00A651"/>
	<stop  offset="1" style="stop-color:#92278F"/>
</linearGradient>
<path class="st24" d="M144.28,107.72c-0.03,0.03-0.06,0.06-0.1,0.08c-0.01,0.01-0.03,0.02-0.04,0.04l-6.32,4.92
	c-0.82,0.64-2.01,0.49-2.65-0.33c-0.64-0.82-0.49-2.01,0.33-2.65l2.73-2.12l-9.5-1.19c-1.21-0.15-2.27-0.88-2.85-1.95l-14.53-26.86
	l-12.15-1.52c-1.03-0.13-1.77-1.07-1.64-2.11c0.13-1.03,1.07-1.77,2.11-1.64l12.15,1.52c1.21,0.15,2.27,0.88,2.85,1.95l14.53,26.86
	l9.5,1.19l-2.12-2.73c-0.64-0.82-0.49-2.01,0.33-2.65c0.82-0.64,2.01-0.49,2.65,0.33l4.92,6.32c0.01,0.01,0.02,0.03,0.03,0.05
	c0.03,0.03,0.05,0.07,0.07,0.11c0.02,0.03,0.03,0.06,0.05,0.09c0.01,0.02,0.03,0.05,0.04,0.07c0.02,0.03,0.03,0.07,0.04,0.1
	c0.01,0.02,0.02,0.05,0.03,0.07c0.01,0.03,0.02,0.07,0.03,0.1c0.01,0.03,0.02,0.05,0.03,0.08c0.01,0.03,0.01,0.06,0.02,0.09
	c0.01,0.03,0.01,0.06,0.02,0.09c0.01,0.03,0.01,0.06,0.01,0.09c0,0.03,0.01,0.06,0.01,0.09c0,0.04,0,0.07,0,0.11
	c0,0.03,0,0.05,0,0.08c0,0.12-0.02,0.25-0.05,0.37c-0.01,0.02-0.01,0.05-0.02,0.07c-0.01,0.04-0.02,0.07-0.03,0.11
	c-0.01,0.03-0.02,0.06-0.03,0.08c-0.01,0.03-0.02,0.06-0.03,0.09c-0.01,0.03-0.03,0.05-0.04,0.08c-0.01,0.03-0.03,0.06-0.04,0.09
	c-0.01,0.02-0.03,0.05-0.04,0.07c-0.02,0.03-0.04,0.06-0.06,0.09c-0.01,0.02-0.03,0.04-0.05,0.06c-0.02,0.03-0.04,0.06-0.07,0.08
	c-0.02,0.02-0.04,0.04-0.06,0.06C144.33,107.68,144.3,107.7,144.28,107.72z M124.39,85.71c0.77,0.71,1.96,0.66,2.67-0.11
	c0,0,0,0,0,0l4.94-5.36l9.5,1.19l-2.73,2.12c-0.82,0.64-0.97,1.83-0.33,2.65c0.64,0.82,1.83,0.97,2.65,0.33l6.32-4.92
	c0.01-0.01,0.03-0.02,0.04-0.04c0.03-0.03,0.07-0.05,0.1-0.08c0.02-0.02,0.05-0.05,0.07-0.07c0.02-0.02,0.04-0.04,0.06-0.06
	c0.02-0.03,0.04-0.06,0.07-0.08c0.02-0.02,0.03-0.04,0.05-0.06c0.02-0.03,0.04-0.06,0.06-0.09c0.01-0.02,0.03-0.05,0.04-0.07
	c0.02-0.03,0.03-0.06,0.04-0.09c0.01-0.03,0.03-0.05,0.04-0.08c0.01-0.03,0.02-0.06,0.03-0.09c0.01-0.03,0.02-0.06,0.03-0.08
	c0.01-0.03,0.02-0.07,0.03-0.1c0.01-0.02,0.01-0.05,0.02-0.07c0.03-0.12,0.04-0.25,0.05-0.37c0-0.03,0-0.05,0-0.08
	c0-0.04,0-0.07,0-0.11c0-0.03-0.01-0.06-0.01-0.09c0-0.03-0.01-0.06-0.01-0.09c-0.01-0.03-0.01-0.06-0.02-0.09
	c-0.01-0.03-0.01-0.06-0.02-0.09c-0.01-0.03-0.02-0.05-0.03-0.08c-0.01-0.03-0.02-0.07-0.03-0.1c-0.01-0.02-0.02-0.05-0.03-0.07
	c-0.01-0.03-0.03-0.07-0.04-0.1c-0.01-0.03-0.03-0.05-0.04-0.07c-0.02-0.03-0.03-0.06-0.05-0.09c-0.02-0.04-0.05-0.07-0.07-0.11
	c-0.01-0.02-0.02-0.03-0.03-0.05l-4.92-6.32c-0.64-0.82-1.83-0.97-2.65-0.33c-0.82,0.64-0.97,1.83-0.33,2.65l2.12,2.73l-9.5-1.19
	c-1.21-0.15-2.42,0.29-3.25,1.19l-4.94,5.36C123.58,83.81,123.63,85.01,124.39,85.71L124.39,85.71z M116.13,94.68
	c-0.77-0.71-1.96-0.66-2.67,0.11c0,0,0,0,0,0l-4.94,5.36l-12.15-1.52c-1.03-0.13-1.98,0.6-2.11,1.64s0.6,1.98,1.64,2.11l12.15,1.52
	c1.21,0.15,2.42-0.29,3.25-1.19l4.94-5.36C116.95,96.58,116.9,95.39,116.13,94.68z"/>
</svg>
