<?xml version="1.0" encoding="utf-8"?>
<!-- Generator: Adobe Illustrator 25.3.0, SVG Export Plug-In . SVG Version: 6.00 Build 0)  -->
<svg version="1.1" id="Layer_1" xmlns="http://www.w3.org/2000/svg" xmlns:xlink="http://www.w3.org/1999/xlink" x="0px" y="0px"
	 viewBox="0 0 760 370" style="enable-background:new 0 0 760 370;" xml:space="preserve">
<style type="text/css">
	.st0{fill:url(#SVGID_1_);}
	.st1{fill:url(#SVGID_2_);}
	.st2{fill:url(#SVGID_3_);}
	.st3{fill:url(#SVGID_4_);}
	.st4{fill:url(#SVGID_5_);}
	.st5{fill:url(#SVGID_6_);}
	.st6{fill:url(#SVGID_7_);}
	.st7{fill:url(#SVGID_8_);}
	.st8{fill:url(#SVGID_9_);}
	.st9{fill:url(#SVGID_10_);}
	.st10{fill:url(#SVGID_11_);}
	.st11{fill:url(#SVGID_12_);}
	.st12{opacity:0.6;fill:none;stroke:#EE2A7B;stroke-miterlimit:10;}
	.st13{fill:#2C3C97;}
	.st14{opacity:0.67;fill:#2A3492;}
	.st15{opacity:0.67;fill:url(#SVGID_13_);}
	.st16{opacity:0.67;fill:url(#SVGID_14_);}
	.st17{fill:#010101;}
	.st18{opacity:0.6;fill:none;stroke:#ED1C24;stroke-width:3;stroke-linecap:round;stroke-linejoin:round;}
	.st19{opacity:0.6;fill:#ED1C24;}
	.st20{opacity:0.5;fill:#009444;}
	.st21{opacity:0.6;fill:none;stroke:url(#SVGID_15_);stroke-width:3;stroke-linecap:round;stroke-linejoin:round;}
	.st22{opacity:0.6;fill:url(#SVGID_16_);}
	.st23{fill:none;}
</style>
<g>
	<path d="M34.99,178.33h6.26v43.28h20.74v5.26h-27V178.33z"/>
	<path d="M71.28,210.59c0.14,8.57,5.62,12.1,11.95,12.1c4.54,0,7.27-0.79,9.65-1.8l1.08,4.54c-2.23,1.01-6.05,2.16-11.59,2.16
		c-10.73,0-17.14-7.06-17.14-17.57s6.19-18.79,16.35-18.79c11.38,0,14.4,10.01,14.4,16.42c0,1.3-0.14,2.3-0.22,2.95H71.28z
		 M89.86,206.06c0.07-4.03-1.66-10.3-8.79-10.3c-6.41,0-9.22,5.9-9.72,10.3H89.86z"/>
	<path d="M123.12,226.87l-0.5-4.39h-0.22c-1.94,2.74-5.69,5.18-10.66,5.18c-7.06,0-10.66-4.97-10.66-10.01
		c0-8.42,7.49-13.03,20.95-12.96v-0.72c0-2.88-0.79-8.06-7.92-8.06c-3.24,0-6.62,1.01-9.07,2.59l-1.44-4.18
		c2.88-1.87,7.06-3.1,11.45-3.1c10.66,0,13.25,7.27,13.25,14.26v13.03c0,3.02,0.14,5.98,0.58,8.35H123.12z M122.18,209.08
		c-6.91-0.14-14.76,1.08-14.76,7.85c0,4.1,2.74,6.05,5.98,6.05c4.54,0,7.42-2.88,8.42-5.83c0.22-0.65,0.36-1.37,0.36-2.02V209.08z"
		/>
	<path d="M138.52,202.89c0-4.1-0.07-7.63-0.29-10.87h5.54l0.22,6.84h0.29c1.58-4.68,5.4-7.63,9.65-7.63c0.72,0,1.22,0.07,1.8,0.22
		v5.98c-0.65-0.14-1.3-0.22-2.16-0.22c-4.46,0-7.63,3.38-8.5,8.14c-0.14,0.86-0.29,1.87-0.29,2.95v18.58h-6.26V202.89z"/>
	<path d="M162.36,201.45c0-3.6-0.07-6.55-0.29-9.43h5.62l0.36,5.76h0.14c1.73-3.31,5.76-6.55,11.52-6.55
		c4.82,0,12.31,2.88,12.31,14.83v20.81h-6.34v-20.09c0-5.62-2.09-10.3-8.07-10.3c-4.18,0-7.42,2.95-8.5,6.48
		c-0.29,0.79-0.43,1.87-0.43,2.95v20.95h-6.34V201.45z"/>
</g>
<g>
	<g>
		<linearGradient id="SVGID_1_" gradientUnits="userSpaceOnUse" x1="211.52" y1="202.959" x2="519.9688" y2="202.959">
			<stop  offset="0" style="stop-color:#3B489E"/>
			<stop  offset="0.5" style="stop-color:#098040"/>
			<stop  offset="1" style="stop-color:#CCD32B"/>
		</linearGradient>
		<path class="st0" d="M223.04,211.6L218,226.87h-6.48l16.49-48.53h7.56l16.56,48.53h-6.7l-5.18-15.27H223.04z M238.95,206.7
			l-4.75-13.97c-1.08-3.17-1.8-6.05-2.52-8.86h-0.14c-0.72,2.88-1.51,5.83-2.45,8.78l-4.75,14.04H238.95z"/>
		<linearGradient id="SVGID_2_" gradientUnits="userSpaceOnUse" x1="211.52" y1="202.959" x2="519.9688" y2="202.959">
			<stop  offset="0" style="stop-color:#3B489E"/>
			<stop  offset="0.5" style="stop-color:#098040"/>
			<stop  offset="1" style="stop-color:#CCD32B"/>
		</linearGradient>
		<path class="st1" d="M258.82,201.45c0-3.6-0.07-6.55-0.29-9.43h5.62l0.36,5.76h0.14c1.73-3.31,5.76-6.55,11.52-6.55
			c4.82,0,12.31,2.88,12.31,14.83v20.81h-6.34v-20.09c0-5.62-2.09-10.3-8.06-10.3c-4.18,0-7.42,2.95-8.5,6.48
			c-0.29,0.79-0.43,1.87-0.43,2.95v20.95h-6.34V201.45z"/>
		<linearGradient id="SVGID_3_" gradientUnits="userSpaceOnUse" x1="211.52" y1="202.959" x2="519.9688" y2="202.959">
			<stop  offset="0" style="stop-color:#3B489E"/>
			<stop  offset="0.5" style="stop-color:#098040"/>
			<stop  offset="1" style="stop-color:#CCD32B"/>
		</linearGradient>
		<path class="st2" d="M305.84,182.22c0.07,2.16-1.51,3.89-4.03,3.89c-2.23,0-3.82-1.73-3.82-3.89c0-2.23,1.66-3.96,3.96-3.96
			C304.33,178.26,305.84,179.99,305.84,182.22z M298.78,226.87v-34.85h6.34v34.85H298.78z"/>
		<linearGradient id="SVGID_4_" gradientUnits="userSpaceOnUse" x1="211.52" y1="202.959" x2="519.9688" y2="202.959">
			<stop  offset="0" style="stop-color:#3B489E"/>
			<stop  offset="0.5" style="stop-color:#098040"/>
			<stop  offset="1" style="stop-color:#CCD32B"/>
		</linearGradient>
		<path class="st3" d="M315.63,201.45c0-3.6-0.07-6.55-0.29-9.43h5.54l0.29,5.62h0.22c1.94-3.31,5.18-6.41,10.94-6.41
			c4.75,0,8.35,2.88,9.86,6.99h0.14c1.08-1.94,2.45-3.46,3.89-4.54c2.09-1.58,4.39-2.45,7.7-2.45c4.61,0,11.45,3.02,11.45,15.12
			v20.52h-6.19v-19.73c0-6.7-2.45-10.73-7.56-10.73c-3.6,0-6.41,2.67-7.49,5.76c-0.29,0.86-0.5,2.02-0.5,3.17v21.53h-6.19v-20.88
			c0-5.54-2.45-9.58-7.27-9.58c-3.96,0-6.84,3.17-7.85,6.34c-0.36,0.94-0.5,2.02-0.5,3.1v21.03h-6.19V201.45z"/>
		<linearGradient id="SVGID_5_" gradientUnits="userSpaceOnUse" x1="211.52" y1="202.959" x2="519.9688" y2="202.959">
			<stop  offset="0" style="stop-color:#3B489E"/>
			<stop  offset="0.5" style="stop-color:#098040"/>
			<stop  offset="1" style="stop-color:#CCD32B"/>
		</linearGradient>
		<path class="st4" d="M394.98,226.87l-0.5-4.39h-0.22c-1.94,2.74-5.69,5.18-10.66,5.18c-7.06,0-10.66-4.97-10.66-10.01
			c0-8.42,7.49-13.03,20.95-12.96v-0.72c0-2.88-0.79-8.06-7.92-8.06c-3.24,0-6.63,1.01-9.07,2.59l-1.44-4.18
			c2.88-1.87,7.06-3.1,11.45-3.1c10.66,0,13.25,7.27,13.25,14.26v13.03c0,3.02,0.14,5.98,0.58,8.35H394.98z M394.04,209.08
			c-6.91-0.14-14.76,1.08-14.76,7.85c0,4.1,2.74,6.05,5.98,6.05c4.54,0,7.42-2.88,8.42-5.83c0.22-0.65,0.36-1.37,0.36-2.02V209.08z"
			/>
		<linearGradient id="SVGID_6_" gradientUnits="userSpaceOnUse" x1="211.52" y1="202.959" x2="519.9688" y2="202.959">
			<stop  offset="0" style="stop-color:#3B489E"/>
			<stop  offset="0.5" style="stop-color:#098040"/>
			<stop  offset="1" style="stop-color:#CCD32B"/>
		</linearGradient>
		<path class="st5" d="M417.73,182v10.01h9.07v4.82h-9.07v18.79c0,4.32,1.22,6.77,4.75,6.77c1.66,0,2.88-0.22,3.67-0.43l0.29,4.75
			c-1.22,0.5-3.17,0.86-5.62,0.86c-2.95,0-5.33-0.94-6.84-2.66c-1.8-1.87-2.45-4.97-2.45-9.07v-19.01h-5.4v-4.82h5.4v-8.35
			L417.73,182z"/>
		<linearGradient id="SVGID_7_" gradientUnits="userSpaceOnUse" x1="211.52" y1="202.959" x2="519.9688" y2="202.959">
			<stop  offset="0" style="stop-color:#3B489E"/>
			<stop  offset="0.5" style="stop-color:#098040"/>
			<stop  offset="1" style="stop-color:#CCD32B"/>
		</linearGradient>
		<path class="st6" d="M440.98,182.22c0.07,2.16-1.51,3.89-4.03,3.89c-2.23,0-3.82-1.73-3.82-3.89c0-2.23,1.66-3.96,3.96-3.96
			C439.47,178.26,440.98,179.99,440.98,182.22z M433.93,226.87v-34.85h6.34v34.85H433.93z"/>
		<linearGradient id="SVGID_8_" gradientUnits="userSpaceOnUse" x1="211.52" y1="202.959" x2="519.9688" y2="202.959">
			<stop  offset="0" style="stop-color:#3B489E"/>
			<stop  offset="0.5" style="stop-color:#098040"/>
			<stop  offset="1" style="stop-color:#CCD32B"/>
		</linearGradient>
		<path class="st7" d="M482.31,209.15c0,12.89-8.93,18.51-17.35,18.51c-9.43,0-16.71-6.91-16.71-17.93
			c0-11.67,7.63-18.51,17.28-18.51C475.54,191.22,482.31,198.5,482.31,209.15z M454.66,209.51c0,7.63,4.39,13.39,10.58,13.39
			c6.05,0,10.58-5.69,10.58-13.54c0-5.91-2.95-13.39-10.44-13.39C457.9,195.97,454.66,202.89,454.66,209.51z"/>
		<linearGradient id="SVGID_9_" gradientUnits="userSpaceOnUse" x1="211.52" y1="202.959" x2="519.9688" y2="202.959">
			<stop  offset="0" style="stop-color:#3B489E"/>
			<stop  offset="0.5" style="stop-color:#098040"/>
			<stop  offset="1" style="stop-color:#CCD32B"/>
		</linearGradient>
		<path class="st8" d="M490.3,201.45c0-3.6-0.07-6.55-0.29-9.43h5.62l0.36,5.76h0.14c1.73-3.31,5.76-6.55,11.52-6.55
			c4.82,0,12.31,2.88,12.31,14.83v20.81h-6.34v-20.09c0-5.62-2.09-10.3-8.07-10.3c-4.18,0-7.42,2.95-8.5,6.48
			c-0.29,0.79-0.43,1.87-0.43,2.95v20.95h-6.34V201.45z"/>
	</g>
</g>
<linearGradient id="SVGID_10_" gradientUnits="userSpaceOnUse" x1="603.1933" y1="63.8613" x2="678.9019" y2="63.8613">
	<stop  offset="0" style="stop-color:#E81463"/>
	<stop  offset="1" style="stop-color:#E99D23"/>
	<stop  offset="1" style="stop-color:#CCD32B"/>
</linearGradient>
<path class="st9" d="M608.6,91.4l-5.41,10.17l0.14-55.42c0-11.13,8.99-20.14,20.14-20.14h55.28c-15.71,4.88-32.08,15.92-42.9,28.49
	C623.92,68.25,617.15,77.72,608.6,91.4 M678.88,26.02c0,0-24.13,11.29-31.49,28.23c-3.92,9.06-4.88,19.95-12,26.8
	c-4.88,4.7-11.79,6.45-17.79,9.51c-3.92,2.03-11.22,6.84-14.34,11.15h55.48c11.15,0,20.16-9.01,20.16-20.14
	C678.88,81.57,678.88,26.02,678.88,26.02L678.88,26.02z"/>
<g>
	<linearGradient id="SVGID_11_" gradientUnits="userSpaceOnUse" x1="620.3655" y1="241.8431" x2="659.5361" y2="241.8431">
		<stop  offset="0" style="stop-color:#0BAA4B"/>
		<stop  offset="1" style="stop-color:#3A489E"/>
	</linearGradient>
	<path class="st10" d="M620.37,241.84c0-10.82,8.77-19.59,19.59-19.59c10.82,0,19.59,8.77,19.59,19.59
		c0,10.82-8.77,19.59-19.59,19.59C629.13,261.43,620.37,252.66,620.37,241.84z"/>
	<linearGradient id="SVGID_12_" gradientUnits="userSpaceOnUse" x1="633.4224" y1="254.9" x2="672.593" y2="254.9">
		<stop  offset="0" style="stop-color:#0BAA4B"/>
		<stop  offset="1" style="stop-color:#3A489E"/>
	</linearGradient>
	<path class="st11" d="M662.57,238.58h5.12c0.9,0,1.63,0.73,1.63,1.63v29.38c0,0.9-0.73,1.63-1.63,1.63h-29.38
		c-0.9,0-1.63-0.73-1.63-1.63v-5.12c-1.1-0.16-2.2-0.4-3.26-0.72v5.84c0,2.7,2.19,4.9,4.9,4.9l0,0h29.38c2.7,0,4.9-2.19,4.9-4.9l0,0
		v-29.38c0-2.7-2.19-4.9-4.9-4.9h-5.84C662.17,236.37,662.41,237.46,662.57,238.58z"/>
</g>
<circle class="st12" cx="333.19" cy="52.01" r="23.49"/>
<circle class="st12" cx="310.42" cy="40.37" r="23.49"/>
<circle class="st12" cx="286.93" cy="34.33" r="23.49"/>
<circle class="st12" cx="263.44" cy="34.33" r="23.49"/>
<circle class="st12" cx="245.67" cy="37.45" r="23.49"/>
<circle class="st12" cx="226.18" cy="43.79" r="23.49"/>
<circle class="st12" cx="207.54" cy="52.01" r="23.49"/>
<circle class="st12" cx="188.03" cy="60.94" r="23.49"/>
<circle class="st12" cx="170.28" cy="67.27" r="23.49"/>
<circle class="st12" cx="151.64" cy="71.92" r="23.49"/>
<circle class="st12" cx="133.01" cy="71.92" r="23.49"/>
<circle class="st12" cx="114.38" cy="71.92" r="23.49"/>
<circle class="st12" cx="95.74" cy="71.92" r="23.49"/>
<circle class="st12" cx="77.11" cy="71.92" r="23.49"/>
<circle class="st12" cx="53.62" cy="71.92" r="23.49"/>
<circle class="st12" cx="356.61" cy="63.86" r="23.49"/>
<circle class="st12" cx="407.39" cy="75.5" r="23.49"/>
<circle class="st12" cx="375.16" cy="71.92" r="23.49"/>
<circle class="st13" cx="436.21" cy="75.5" r="23.49"/>
<g>
	<path class="st14" d="M36.79,309.11l8.16,4.85c2.82,1.67,3.74,5.32,2.07,8.13l-4.85,8.16c-1.67,2.82-5.32,3.74-8.13,2.07
		l-8.16-4.85c-2.82-1.67-3.74-5.32-2.07-8.13l4.85-8.16C30.33,308.36,33.98,307.44,36.79,309.11z"/>
	<path class="st14" d="M42.78,307.68l8.11,4.82c2.8,1.66,3.72,5.28,2.06,8.08l-4.82,8.11c-1.66,2.8-5.28,3.72-8.08,2.06l-8.11-4.82
		c-2.8-1.66-3.72-5.28-2.06-8.08l4.82-8.11C36.37,306.93,39.99,306.01,42.78,307.68 M41.58,309.7c-1.68-1-3.85-0.45-4.85,1.23
		l-4.82,8.11c-1,1.68-0.45,3.85,1.23,4.85l8.11,4.82c1.68,1,3.85,0.45,4.85-1.23l4.82-8.11c1-1.68,0.45-3.85-1.23-4.85L41.58,309.7z
		"/>
</g>
<g>
	<linearGradient id="SVGID_13_" gradientUnits="userSpaceOnUse" x1="704.2266" y1="309.4603" x2="729.1033" y2="309.4603">
		<stop  offset="0" style="stop-color:#FFF33B"/>
		<stop  offset="0.0595" style="stop-color:#FFE029"/>
		<stop  offset="0.1303" style="stop-color:#FFD217"/>
		<stop  offset="0.2032" style="stop-color:#FEC90E"/>
		<stop  offset="0.2809" style="stop-color:#FDC70C"/>
		<stop  offset="0.6685" style="stop-color:#F3903F"/>
		<stop  offset="0.8876" style="stop-color:#ED683C"/>
		<stop  offset="1" style="stop-color:#E93E3A"/>
	</linearGradient>
	<path class="st15" d="M718.04,297.85l8.16,4.85c2.82,1.67,3.74,5.32,2.07,8.13l-4.85,8.16c-1.67,2.82-5.32,3.74-8.13,2.07
		l-8.16-4.85c-2.82-1.67-3.74-5.32-2.07-8.13l4.85-8.16C711.58,297.11,715.23,296.18,718.04,297.85z"/>
	<linearGradient id="SVGID_14_" gradientUnits="userSpaceOnUse" x1="710.3058" y1="307.9516" x2="735.0253" y2="307.9516">
		<stop  offset="0" style="stop-color:#FFF33B"/>
		<stop  offset="0.0595" style="stop-color:#FFE029"/>
		<stop  offset="0.1303" style="stop-color:#FFD217"/>
		<stop  offset="0.2032" style="stop-color:#FEC90E"/>
		<stop  offset="0.2809" style="stop-color:#FDC70C"/>
		<stop  offset="0.6685" style="stop-color:#F3903F"/>
		<stop  offset="0.8876" style="stop-color:#ED683C"/>
		<stop  offset="1" style="stop-color:#E93E3A"/>
	</linearGradient>
	<path class="st16" d="M724.03,296.42l8.11,4.82c2.8,1.66,3.72,5.28,2.06,8.08l-4.82,8.11c-1.66,2.8-5.28,3.72-8.08,2.06l-8.11-4.82
		c-2.8-1.66-3.72-5.28-2.06-8.08l4.82-8.11C717.62,295.68,721.24,294.76,724.03,296.42 M722.83,298.45c-1.68-1-3.85-0.45-4.85,1.23
		l-4.82,8.11c-1,1.68-0.45,3.85,1.23,4.85l8.11,4.82c1.68,1,3.85,0.45,4.85-1.23l4.82-8.11c1-1.68,0.45-3.85-1.23-4.85
		L722.83,298.45z"/>
</g>
<g>
	<path class="st14" d="M84.67,18.95l15.39,2.06c5.31,0.71,9.04,5.6,8.33,10.91l-2.06,15.39c-0.71,5.31-5.6,9.04-10.91,8.33
		l-15.39-2.06c-5.31-0.71-9.04-5.6-8.33-10.91l2.06-15.39C74.47,21.97,79.36,18.24,84.67,18.95z"/>
	<path class="st14" d="M92.77,12.94l15.3,2.05c5.28,0.71,8.99,5.56,8.28,10.84l-2.05,15.3c-0.71,5.28-5.56,8.99-10.84,8.28
		l-15.3-2.05c-5.28-0.71-8.99-5.56-8.28-10.84l2.05-15.3C82.63,15.95,87.49,12.24,92.77,12.94 M92.26,16.77
		c-3.17-0.42-6.08,1.79-6.5,4.97l-2.05,15.3c-0.42,3.17,1.79,6.08,4.97,6.5l15.3,2.05c3.17,0.42,6.08-1.79,6.5-4.97l2.05-15.3
		c0.42-3.17-1.79-6.08-4.97-6.5L92.26,16.77z"/>
</g>
<g>
	<path class="st14" d="M616.36,88.07l3.7,14.2c1.28,4.9-1.66,9.91-6.56,11.19l-14.2,3.7c-4.9,1.28-9.91-1.66-11.19-6.56l-3.7-14.2
		c-1.28-4.9,1.66-9.91,6.56-11.19l14.2-3.7C610.07,80.23,615.09,83.17,616.36,88.07z"/>
	<path class="st14" d="M624.51,93l3.68,14.11c1.27,4.87-1.65,9.85-6.52,11.12l-14.11,3.68c-4.87,1.27-9.85-1.65-11.12-6.52
		l-3.68-14.11c-1.27-4.87,1.65-9.85,6.52-11.12l14.11-3.68C618.26,85.21,623.24,88.13,624.51,93 M620.98,93.92
		c-0.76-2.93-3.74-4.68-6.67-3.91l-14.11,3.68c-2.93,0.76-4.68,3.74-3.91,6.67l3.68,14.11c0.76,2.93,3.74,4.68,6.67,3.91l14.11-3.68
		c2.93-0.76,4.68-3.74,3.91-6.67L620.98,93.92z"/>
</g>
<g>
	<path class="st14" d="M639.39,334.08l8.16,4.85c2.82,1.67,3.74,5.32,2.07,8.13l-4.85,8.16c-1.67,2.82-5.32,3.74-8.13,2.07
		l-8.16-4.85c-2.82-1.67-3.74-5.32-2.07-8.13l4.85-8.16C632.93,333.33,636.57,332.41,639.39,334.08z"/>
	<path class="st14" d="M645.38,332.65l8.11,4.82c2.8,1.66,3.72,5.28,2.06,8.08l-4.82,8.11c-1.66,2.8-5.28,3.72-8.08,2.06l-8.11-4.82
		c-2.8-1.66-3.72-5.28-2.06-8.08l4.82-8.11C638.96,331.9,642.58,330.98,645.38,332.65 M644.17,334.67c-1.68-1-3.85-0.45-4.85,1.23
		l-4.82,8.11c-1,1.68-0.45,3.85,1.23,4.85l8.11,4.82c1.68,1,3.85,0.45,4.85-1.23l4.82-8.11c1-1.68,0.45-3.85-1.23-4.85
		L644.17,334.67z"/>
</g>
<path class="st17" d="M547.17,39c-0.29,0-0.56,0.03-0.83,0.08l-13.27-13.27c0.05-0.27,0.08-0.55,0.08-0.83
	c0-2.58-2.1-4.67-4.67-4.67s-4.67,2.1-4.67,4.67c0,2.03,1.31,3.74,3.11,4.38v9.92c-1.86,0.66-3.11,2.41-3.11,4.39
	c0,2.58,2.1,4.67,4.67,4.67c1.97-0.01,3.73-1.25,4.38-3.11h9.92c0.66,1.86,2.41,3.11,4.38,3.11c2.58,0,4.67-2.1,4.67-4.67
	S549.74,39,547.17,39z M530.04,39.29v-9.92c0.51-0.18,0.98-0.45,1.39-0.79l12.15,12.15c-0.34,0.41-0.61,0.89-0.79,1.39h-9.92
	C532.39,40.8,531.36,39.76,530.04,39.29z M528.48,23.43c0.86,0,1.56,0.7,1.56,1.56c0,0.86-0.7,1.56-1.56,1.56s-1.56-0.7-1.56-1.56
	c0,0,0,0,0,0C526.92,24.13,527.62,23.43,528.48,23.43z M528.48,45.23c-0.86-0.04-1.53-0.77-1.49-1.63c0.04-0.81,0.68-1.45,1.49-1.49
	c0.86,0.04,1.53,0.77,1.49,1.63C529.93,44.55,529.28,45.2,528.48,45.23z M547.17,45.23c-0.86-0.04-1.53-0.77-1.49-1.63
	c0.04-0.81,0.68-1.45,1.49-1.49c0.86,0.04,1.53,0.77,1.49,1.63C548.62,44.55,547.97,45.2,547.17,45.23z"/>
<g>
	<polygon class="st18" points="72.83,342.38 89.74,328.21 92.37,350.11 	"/>
	<path class="st19" d="M107.28,350.74l-3.68-24.98c-0.08-0.18-0.16-0.36-0.24-0.55c-0.5-0.65-1.33-0.83-1.98-0.33L81.6,340.58
		c-0.31,0.03-0.42,0.29-0.52,0.55c-0.31,0.78,0.01,1.51,0.79,1.82l23.46,9.29c0.26,0.1,0.39,0.15,0.7,0.13
		C106.84,352.23,107.28,351.5,107.28,350.74z"/>
</g>
<path class="st20" d="M359.6,335.22l-13.24,26.48l-26.21-42.26l-7.57,15.78h-5.93l13.24-26.48L346.1,351l7.57-15.78H359.6z"/>
<g>
	<polygon class="st18" points="711.49,266.75 728.4,252.58 731.03,274.49 	"/>
	<path class="st19" d="M745.94,275.11l-3.68-24.98c-0.08-0.18-0.16-0.36-0.24-0.55c-0.5-0.65-1.33-0.83-1.98-0.33l-19.78,15.69
		c-0.31,0.03-0.42,0.29-0.52,0.55c-0.31,0.78,0.01,1.51,0.79,1.82l23.46,9.29c0.26,0.1,0.39,0.15,0.7,0.13
		C745.5,276.6,745.94,275.87,745.94,275.11z"/>
</g>
<g>
	
		<linearGradient id="SVGID_15_" gradientUnits="userSpaceOnUse" x1="56.0917" y1="121.6916" x2="78.6312" y2="121.6916" gradientTransform="matrix(-0.9443 -0.329 0.329 -0.9443 76.8742 252.6764)">
		<stop  offset="0" style="stop-color:#FFF33B"/>
		<stop  offset="0.0595" style="stop-color:#FFE029"/>
		<stop  offset="0.1303" style="stop-color:#FFD217"/>
		<stop  offset="0.2032" style="stop-color:#FEC90E"/>
		<stop  offset="0.2809" style="stop-color:#FDC70C"/>
		<stop  offset="0.6685" style="stop-color:#F3903F"/>
		<stop  offset="0.8876" style="stop-color:#ED683C"/>
		<stop  offset="1" style="stop-color:#E93E3A"/>
	</linearGradient>
	<polygon class="st21" points="63.58,115.77 42.95,123.59 47.67,102.04 	"/>
	
		<linearGradient id="SVGID_16_" gradientUnits="userSpaceOnUse" x1="65.7248" y1="121.015" x2="92.0409" y2="121.015" gradientTransform="matrix(-0.9443 -0.329 0.329 -0.9443 76.8742 252.6764)">
		<stop  offset="0" style="stop-color:#FFF33B"/>
		<stop  offset="0.0595" style="stop-color:#FFE029"/>
		<stop  offset="0.1303" style="stop-color:#FFD217"/>
		<stop  offset="0.2032" style="stop-color:#FEC90E"/>
		<stop  offset="0.2809" style="stop-color:#FDC70C"/>
		<stop  offset="0.6685" style="stop-color:#F3903F"/>
		<stop  offset="0.8876" style="stop-color:#ED683C"/>
		<stop  offset="1" style="stop-color:#E93E3A"/>
	</linearGradient>
	<path class="st22" d="M33.8,96.54l-4.74,24.8c0.01,0.2,0.03,0.4,0.04,0.59c0.26,0.78,0.98,1.22,1.76,0.96l23.84-8.31
		c0.3,0.08,0.49-0.14,0.67-0.35c0.55-0.64,0.49-1.43-0.15-1.98l-19.1-16.49c-0.21-0.18-0.32-0.27-0.62-0.35
		C34.7,95.28,34.04,95.83,33.8,96.54z"/>
</g>
<g>
	<polygon class="st18" points="603.5,291.67 625.5,290 614.88,309.33 	"/>
	<path class="st19" d="M626.64,318.53l11.55-22.45c0.04-0.19,0.08-0.39,0.13-0.58c-0.03-0.82-0.6-1.45-1.42-1.42l-25.22,1.24
		c-0.27-0.16-0.51-0.01-0.74,0.14c-0.71,0.46-0.88,1.23-0.42,1.94l13.66,21.22c0.15,0.24,0.23,0.35,0.5,0.51
		C625.41,319.48,626.2,319.14,626.64,318.53z"/>
</g>
<path class="st23" d="M90.22,344.97c10.06-6.5,20.13-13,30.19-19.5"/>
</svg>
