<?xml version="1.0" encoding="utf-8"?>
<!-- Generator: Adobe Illustrator 25.3.0, SVG Export Plug-In . SVG Version: 6.00 Build 0)  -->
<svg version="1.1" id="Layer_1" xmlns="http://www.w3.org/2000/svg" xmlns:xlink="http://www.w3.org/1999/xlink" x="0px" y="0px"
	 viewBox="0 0 760 370" style="enable-background:new 0 0 760 370;" xml:space="preserve">
<style type="text/css">
	.st0{opacity:0.58;}
	.st1{opacity:0.67;fill:#39B54A;}
	.st2{opacity:0.67;fill:url(#SVGID_1_);}
	.st3{opacity:0.67;fill:url(#SVGID_2_);}
	.st4{opacity:0.81;}
	.st5{opacity:0.67;fill:url(#SVGID_3_);}
	.st6{opacity:0.67;fill:url(#SVGID_4_);}
	.st7{opacity:0.67;fill:#2A3492;}
	.st8{opacity:0.6;fill:none;stroke:#ED1C24;stroke-width:3;stroke-linecap:round;stroke-linejoin:round;}
	.st9{opacity:0.6;fill:#ED1C24;}
	.st10{opacity:0.6;fill:none;stroke:url(#SVGID_5_);stroke-width:3;stroke-linecap:round;stroke-linejoin:round;}
	.st11{opacity:0.6;fill:url(#SVGID_6_);}
	.st12{fill:#662D91;}
	.st13{fill:#894C9E;}
	.st14{opacity:0.67;fill:url(#SVGID_7_);}
	.st15{opacity:0.67;fill:url(#SVGID_8_);}
	.st16{opacity:0.67;fill:url(#SVGID_9_);}
	.st17{opacity:0.67;fill:url(#SVGID_10_);}
	.st18{fill:#ED1C24;}
	.st19{fill-rule:evenodd;clip-rule:evenodd;fill:#010101;}
	.st20{fill:url(#SVGID_11_);}
	.st21{fill:url(#SVGID_12_);}
	.st22{fill:url(#SVGID_13_);}
	.st23{fill:url(#SVGID_14_);}
	.st24{fill:url(#SVGID_15_);}
	.st25{fill:url(#SVGID_16_);}
	.st26{fill:url(#SVGID_17_);}
	.st27{opacity:0.58;fill:#2A3492;}
	.st28{opacity:0.47;fill:#ED1C24;}
	.st29{opacity:0.54;fill:#009444;}
</style>
<g>
	<path d="M34.99,178.33h6.26v43.28h20.74v5.26h-27V178.33z"/>
	<path d="M71.28,210.59c0.14,8.57,5.62,12.1,11.95,12.1c4.54,0,7.27-0.79,9.65-1.8l1.08,4.54c-2.23,1.01-6.05,2.16-11.59,2.16
		c-10.73,0-17.14-7.06-17.14-17.57s6.19-18.79,16.35-18.79c11.38,0,14.4,10.01,14.4,16.42c0,1.3-0.14,2.3-0.22,2.95H71.28z
		 M89.86,206.06c0.07-4.03-1.66-10.3-8.79-10.3c-6.41,0-9.22,5.9-9.72,10.3H89.86z"/>
	<path d="M123.12,226.87l-0.5-4.39h-0.22c-1.94,2.74-5.69,5.18-10.66,5.18c-7.06,0-10.66-4.97-10.66-10.01
		c0-8.42,7.49-13.03,20.95-12.96v-0.72c0-2.88-0.79-8.06-7.92-8.06c-3.24,0-6.62,1.01-9.07,2.59l-1.44-4.18
		c2.88-1.87,7.06-3.1,11.45-3.1c10.66,0,13.25,7.27,13.25,14.26v13.03c0,3.02,0.14,5.98,0.58,8.35H123.12z M122.18,209.08
		c-6.91-0.14-14.76,1.08-14.76,7.85c0,4.1,2.74,6.05,5.98,6.05c4.54,0,7.42-2.88,8.42-5.83c0.22-0.65,0.36-1.37,0.36-2.02V209.08z"
		/>
	<path d="M138.52,202.89c0-4.1-0.07-7.63-0.29-10.87h5.54l0.22,6.84h0.29c1.58-4.68,5.4-7.63,9.65-7.63c0.72,0,1.22,0.07,1.8,0.22
		v5.98c-0.65-0.14-1.3-0.22-2.16-0.22c-4.46,0-7.63,3.38-8.5,8.14c-0.14,0.86-0.29,1.87-0.29,2.95v18.58h-6.26V202.89z"/>
	<path d="M162.36,201.45c0-3.6-0.07-6.55-0.29-9.43h5.62l0.36,5.76h0.14c1.73-3.31,5.76-6.55,11.52-6.55
		c4.82,0,12.31,2.88,12.31,14.83v20.81h-6.34v-20.09c0-5.62-2.09-10.3-8.07-10.3c-4.18,0-7.42,2.95-8.5,6.48
		c-0.29,0.79-0.43,1.87-0.43,2.95v20.95h-6.34V201.45z"/>
</g>
<g class="st0">
	<path class="st1" d="M214.24,108.65l8.16,4.85c2.82,1.67,3.74,5.32,2.07,8.13l-4.85,8.16c-1.67,2.82-5.32,3.74-8.13,2.07
		l-8.16-4.85c-2.82-1.67-3.74-5.32-2.07-8.13l4.85-8.16C207.78,107.9,211.42,106.98,214.24,108.65z"/>
	<path class="st1" d="M220.23,107.21l8.11,4.82c2.8,1.66,3.72,5.28,2.06,8.08l-4.82,8.11c-1.66,2.8-5.28,3.72-8.08,2.06l-8.11-4.82
		c-2.8-1.66-3.72-5.28-2.06-8.08l4.82-8.11C213.81,106.47,217.43,105.55,220.23,107.21 M219.03,109.24c-1.68-1-3.85-0.45-4.85,1.23
		l-4.82,8.11c-1,1.68-0.45,3.85,1.23,4.85l8.11,4.82c1.68,1,3.85,0.45,4.85-1.23l4.82-8.11c1-1.68,0.45-3.85-1.23-4.85
		L219.03,109.24z"/>
</g>
<g>
	<linearGradient id="SVGID_1_" gradientUnits="userSpaceOnUse" x1="717.2697" y1="261.6845" x2="742.1464" y2="261.6845">
		<stop  offset="0" style="stop-color:#FFF33B"/>
		<stop  offset="0.0595" style="stop-color:#FFE029"/>
		<stop  offset="0.1303" style="stop-color:#FFD217"/>
		<stop  offset="0.2032" style="stop-color:#FEC90E"/>
		<stop  offset="0.2809" style="stop-color:#FDC70C"/>
		<stop  offset="0.6685" style="stop-color:#F3903F"/>
		<stop  offset="0.8876" style="stop-color:#ED683C"/>
		<stop  offset="1" style="stop-color:#E93E3A"/>
	</linearGradient>
	<path class="st2" d="M731.08,250.08l8.16,4.85c2.82,1.67,3.74,5.32,2.07,8.13l-4.85,8.16c-1.67,2.82-5.32,3.74-8.13,2.07
		l-8.16-4.85c-2.82-1.67-3.74-5.32-2.07-8.13l4.85-8.16C724.63,249.33,728.27,248.41,731.08,250.08z"/>
	<linearGradient id="SVGID_2_" gradientUnits="userSpaceOnUse" x1="723.3489" y1="260.1758" x2="748.0684" y2="260.1758">
		<stop  offset="0" style="stop-color:#FFF33B"/>
		<stop  offset="0.0595" style="stop-color:#FFE029"/>
		<stop  offset="0.1303" style="stop-color:#FFD217"/>
		<stop  offset="0.2032" style="stop-color:#FEC90E"/>
		<stop  offset="0.2809" style="stop-color:#FDC70C"/>
		<stop  offset="0.6685" style="stop-color:#F3903F"/>
		<stop  offset="0.8876" style="stop-color:#ED683C"/>
		<stop  offset="1" style="stop-color:#E93E3A"/>
	</linearGradient>
	<path class="st3" d="M737.08,248.64l8.11,4.82c2.8,1.66,3.72,5.28,2.06,8.08l-4.82,8.11c-1.66,2.8-5.28,3.72-8.08,2.06l-8.11-4.82
		c-2.8-1.66-3.72-5.28-2.06-8.08l4.82-8.11C730.66,247.9,734.28,246.98,737.08,248.64 M735.87,250.67c-1.68-1-3.85-0.45-4.85,1.23
		l-4.82,8.11c-1,1.68-0.45,3.85,1.23,4.85l8.11,4.82c1.68,1,3.85,0.45,4.85-1.23l4.82-8.11c1-1.68,0.45-3.85-1.23-4.85
		L735.87,250.67z"/>
</g>
<g class="st4">
	<linearGradient id="SVGID_3_" gradientUnits="userSpaceOnUse" x1="124.4192" y1="101.104" x2="161.2924" y2="101.104">
		<stop  offset="0" style="stop-color:#2B3990"/>
		<stop  offset="1" style="stop-color:#ED1C24"/>
	</linearGradient>
	<path class="st5" d="M137.48,82.75l15.39,2.06c5.31,0.71,9.04,5.6,8.33,10.91l-2.06,15.39c-0.71,5.31-5.6,9.04-10.91,8.33
		l-15.39-2.06c-5.31-0.71-9.04-5.6-8.33-10.91l2.06-15.39C127.28,85.78,132.17,82.04,137.48,82.75z"/>
	<linearGradient id="SVGID_4_" gradientUnits="userSpaceOnUse" x1="132.5982" y1="94.9811" x2="169.2382" y2="94.9811">
		<stop  offset="0" style="stop-color:#2B3990"/>
		<stop  offset="1" style="stop-color:#ED1C24"/>
	</linearGradient>
	<path class="st6" d="M145.57,76.75l15.3,2.05c5.28,0.71,8.99,5.56,8.28,10.84l-2.05,15.3c-0.71,5.28-5.56,8.99-10.84,8.28
		l-15.3-2.05c-5.28-0.71-8.99-5.56-8.28-10.84l2.05-15.3C135.44,79.75,140.3,76.04,145.57,76.75 M145.06,80.57
		c-3.17-0.42-6.08,1.79-6.5,4.97l-2.05,15.3c-0.42,3.17,1.79,6.08,4.97,6.5l15.3,2.05c3.17,0.42,6.08-1.79,6.5-4.97l2.05-15.3
		c0.42-3.17-1.79-6.08-4.97-6.5L145.06,80.57z"/>
</g>
<g>
	<path class="st7" d="M481.9,24.34l3.7,14.2c1.28,4.9-1.66,9.91-6.56,11.19l-14.2,3.7c-4.9,1.28-9.91-1.66-11.19-6.56l-3.7-14.2
		c-1.28-4.9,1.66-9.91,6.56-11.19l14.2-3.7C475.61,16.5,480.62,19.44,481.9,24.34z"/>
	<path class="st7" d="M490.05,29.27l3.68,14.11c1.27,4.87-1.65,9.85-6.52,11.12l-14.11,3.68c-4.87,1.27-9.85-1.65-11.12-6.52
		l-3.68-14.11c-1.27-4.87,1.65-9.85,6.52-11.12l14.11-3.68C483.79,21.48,488.78,24.4,490.05,29.27 M486.52,30.19
		c-0.76-2.93-3.74-4.68-6.67-3.91l-14.11,3.68c-2.93,0.76-4.68,3.74-3.91,6.67l3.68,14.11c0.76,2.93,3.74,4.68,6.67,3.91l14.11-3.68
		c2.93-0.76,4.68-3.74,3.91-6.67L486.52,30.19z"/>
</g>
<g>
	<path class="st7" d="M614.94,255.06l8.16,4.85c2.82,1.67,3.74,5.32,2.07,8.13l-4.85,8.16c-1.67,2.82-5.32,3.74-8.13,2.07
		l-8.16-4.85c-2.82-1.67-3.74-5.32-2.07-8.13l4.85-8.16C608.48,254.31,612.13,253.38,614.94,255.06z"/>
	<path class="st7" d="M620.93,253.62l8.11,4.82c2.8,1.66,3.72,5.28,2.06,8.08l-4.82,8.11c-1.66,2.8-5.28,3.72-8.08,2.06l-8.11-4.82
		c-2.8-1.66-3.72-5.28-2.06-8.08l4.82-8.11C614.52,252.88,618.14,251.96,620.93,253.62 M619.73,255.65c-1.68-1-3.85-0.45-4.85,1.23
		l-4.82,8.11c-1,1.68-0.45,3.85,1.23,4.85l8.11,4.82c1.68,1,3.85,0.45,4.85-1.23l4.82-8.11c1-1.68,0.45-3.85-1.23-4.85
		L619.73,255.65z"/>
</g>
<g>
	<polygon class="st8" points="148.15,339.88 145.21,361.75 128.5,347.35 	"/>
	<path class="st9" d="M117.07,356.94l19.56,15.96c0.18,0.08,0.36,0.16,0.54,0.24c0.8,0.14,1.54-0.29,1.69-1.09l4.03-24.93
		c0.21-0.23,0.11-0.49,0.01-0.75c-0.3-0.79-1.02-1.11-1.81-0.81l-23.59,8.96c-0.26,0.1-0.39,0.15-0.61,0.38
		C116.39,355.55,116.56,356.38,117.07,356.94z"/>
</g>
<g>
	<polygon class="st8" points="662.23,43.08 679.14,28.91 681.77,50.82 	"/>
	<path class="st9" d="M696.68,51.45L693,26.47c-0.08-0.18-0.16-0.36-0.24-0.55c-0.5-0.65-1.33-0.83-1.98-0.33L671,41.28
		c-0.31,0.03-0.42,0.29-0.52,0.55c-0.31,0.78,0.01,1.51,0.79,1.82l23.46,9.29c0.26,0.1,0.39,0.15,0.7,0.13
		C696.24,52.93,696.68,52.2,696.68,51.45z"/>
</g>
<g>
	
		<linearGradient id="SVGID_5_" gradientUnits="userSpaceOnUse" x1="-12.5092" y1="234.3106" x2="10.0304" y2="234.3106" gradientTransform="matrix(-0.9443 -0.329 0.329 -0.9443 76.8742 252.6764)">
		<stop  offset="0" style="stop-color:#FFF33B"/>
		<stop  offset="0.0595" style="stop-color:#FFE029"/>
		<stop  offset="0.1303" style="stop-color:#FFD217"/>
		<stop  offset="0.2032" style="stop-color:#FEC90E"/>
		<stop  offset="0.2809" style="stop-color:#FDC70C"/>
		<stop  offset="0.6685" style="stop-color:#F3903F"/>
		<stop  offset="0.8876" style="stop-color:#ED683C"/>
		<stop  offset="1" style="stop-color:#E93E3A"/>
	</linearGradient>
	<polygon class="st10" points="165.41,31.99 144.78,39.81 149.5,18.26 	"/>
	
		<linearGradient id="SVGID_6_" gradientUnits="userSpaceOnUse" x1="-2.876" y1="233.634" x2="23.44" y2="233.634" gradientTransform="matrix(-0.9443 -0.329 0.329 -0.9443 76.8742 252.6764)">
		<stop  offset="0" style="stop-color:#FFF33B"/>
		<stop  offset="0.0595" style="stop-color:#FFE029"/>
		<stop  offset="0.1303" style="stop-color:#FFD217"/>
		<stop  offset="0.2032" style="stop-color:#FEC90E"/>
		<stop  offset="0.2809" style="stop-color:#FDC70C"/>
		<stop  offset="0.6685" style="stop-color:#F3903F"/>
		<stop  offset="0.8876" style="stop-color:#ED683C"/>
		<stop  offset="1" style="stop-color:#E93E3A"/>
	</linearGradient>
	<path class="st11" d="M135.63,12.76l-4.74,24.8c0.01,0.2,0.03,0.4,0.04,0.59c0.26,0.78,0.98,1.22,1.76,0.96l23.84-8.31
		c0.3,0.08,0.49-0.14,0.67-0.35c0.55-0.64,0.49-1.43-0.15-1.98l-19.1-16.49c-0.21-0.18-0.32-0.27-0.62-0.35
		C136.53,11.5,135.87,12.04,135.63,12.76z"/>
</g>
<g>
	<polygon class="st8" points="567.8,338.94 589.8,337.27 579.18,356.6 	"/>
	<path class="st9" d="M590.94,365.8l11.55-22.45c0.04-0.19,0.08-0.39,0.13-0.58c-0.03-0.82-0.6-1.45-1.42-1.42l-25.22,1.24
		c-0.27-0.16-0.51-0.01-0.74,0.14c-0.71,0.46-0.88,1.23-0.42,1.94l13.66,21.22c0.15,0.24,0.23,0.35,0.5,0.51
		C589.72,366.75,590.5,366.41,590.94,365.8z"/>
</g>
<path class="st12" d="M682.78,354.7c-29.29,0-53.02-12.02-53.02-26.86c0-14.84,23.72-26.86,53.02-26.86
	c29.29,0,53.02,12.02,53.02,26.86C735.79,342.68,712.07,354.7,682.78,354.7 M659.85,319.57c2.39,0,4.02,0.44,4.82,1.37
	c0.8,0.88,0.97,2.47,0.57,4.55c-0.44,2.34-1.28,3.84-2.56,4.82c-1.24,0.97-3.14,1.46-5.7,1.46h-3.84l2.34-12.19H659.85
	 M644.38,344.09h6.36l1.5-7.73h5.43c2.39,0,4.33-0.27,5.88-0.75c1.55-0.53,2.96-1.37,4.24-2.56c1.06-0.97,1.9-2.03,2.56-3.23
	c0.66-1.15,1.15-2.47,1.37-3.89c0.71-3.45,0.22-6.14-1.46-8.04c-1.72-1.94-4.37-2.87-8.04-2.87h-12.19L644.38,344.09 M676.41,307.29
	l-5.65,29.07h6.27l3.27-16.66h5.04c1.59,0,2.65,0.27,3.14,0.8s0.57,1.5,0.31,2.92l-2.52,12.94h6.41l2.61-13.56
	c0.57-2.74,0.13-4.73-1.19-6.01c-1.33-1.19-3.76-1.77-7.29-1.77h-5.61l1.59-7.73H676.41 M709.28,319.57c2.43,0,4.02,0.44,4.82,1.37
	c0.8,0.88,0.97,2.47,0.57,4.55c-0.44,2.34-1.28,3.84-2.52,4.82c-1.28,0.97-3.18,1.46-5.74,1.46h-3.76l2.21-12.19H709.28
	 M693.82,344.09h6.36l1.5-7.73h5.39c2.43,0,4.42-0.27,5.96-0.75c1.55-0.53,2.87-1.37,4.2-2.56c1.06-0.97,1.94-2.03,2.56-3.23
	c0.66-1.15,1.15-2.47,1.41-3.89c0.66-3.45,0.18-6.14-1.5-8.04c-1.59-1.94-4.37-2.87-8.04-2.87h-12.15L693.82,344.09z"/>
<path class="st13" d="M235.27,15.47c-16.97,0-30.72,4.59-30.72,10.24v40.97c0,5.66,13.76,10.24,30.72,10.24s30.72-4.59,30.72-10.24
	V25.71C265.99,20.06,252.24,15.47,235.27,15.47 M235.27,20.59c14.14,0,25.6,2.29,25.6,5.12s-11.46,5.12-25.6,5.12
	s-25.6-2.29-25.6-5.12S221.13,20.59,235.27,20.59 M209.67,31.35c5.68,2.87,15.29,4.6,25.6,4.6c10.3,0,19.92-1.73,25.6-4.59V46.2
	c0,2.83-11.46,5.12-25.6,5.12s-25.6-2.29-25.6-5.12V31.35z M209.67,51.84c5.68,2.87,15.29,4.6,25.6,4.6c10.3,0,19.92-1.73,25.6-4.59
	v14.83c0,2.83-11.46,5.12-25.6,5.12s-25.6-2.29-25.6-5.12V51.84z"/>
<g>
	<linearGradient id="SVGID_7_" gradientUnits="userSpaceOnUse" x1="679.4557" y1="123.1676" x2="716.3289" y2="123.1676">
		<stop  offset="0" style="stop-color:#ED1C24"/>
		<stop  offset="1" style="stop-color:#92278F"/>
	</linearGradient>
	<path class="st14" d="M692.51,104.82l15.4,2.06c5.31,0.71,9.04,5.6,8.33,10.91l-2.06,15.39c-0.71,5.31-5.6,9.04-10.91,8.33
		l-15.4-2.06c-5.31-0.71-9.04-5.6-8.33-10.91l2.06-15.39C682.31,107.84,687.2,104.11,692.51,104.82z"/>
	<linearGradient id="SVGID_8_" gradientUnits="userSpaceOnUse" x1="687.6348" y1="117.0446" x2="724.2748" y2="117.0446">
		<stop  offset="0" style="stop-color:#ED1C24"/>
		<stop  offset="1" style="stop-color:#92278F"/>
	</linearGradient>
	<path class="st15" d="M700.61,98.81l15.3,2.05c5.28,0.71,8.99,5.56,8.28,10.84l-2.05,15.3c-0.71,5.28-5.56,8.99-10.84,8.28
		l-15.3-2.05c-5.28-0.71-8.99-5.56-8.28-10.84l2.05-15.3C690.48,101.81,695.33,98.1,700.61,98.81 M700.1,102.64
		c-3.17-0.42-6.08,1.79-6.5,4.97l-2.05,15.3c-0.42,3.17,1.79,6.08,4.97,6.5l15.3,2.05c3.17,0.42,6.08-1.79,6.5-4.97l2.05-15.3
		c0.42-3.17-1.79-6.08-4.97-6.5L700.1,102.64z"/>
</g>
<g>
	<linearGradient id="SVGID_9_" gradientUnits="userSpaceOnUse" x1="344.1108" y1="368.0804" x2="385.0916" y2="368.0804">
		<stop  offset="0" style="stop-color:#5BBA47"/>
		<stop  offset="1" style="stop-color:#ED1C24"/>
	</linearGradient>
	<path class="st16" d="M348.38,357.95l12.87-8.7c4.44-3,10.48-1.83,13.48,2.61l8.7,12.87c3,4.44,1.83,10.48-2.61,13.48l-12.87,8.7
		c-4.44,3-10.48,1.83-13.48-2.61l-8.7-12.87C342.77,366.99,343.94,360.95,348.38,357.95z"/>
	<linearGradient id="SVGID_10_" gradientUnits="userSpaceOnUse" x1="346.1914" y1="358.1463" x2="386.9131" y2="358.1463">
		<stop  offset="0" style="stop-color:#5BBA47"/>
		<stop  offset="1" style="stop-color:#ED1C24"/>
	</linearGradient>
	<path class="st17" d="M350.44,348.08l12.79-8.64c4.41-2.98,10.41-1.82,13.39,2.59l8.64,12.79c2.98,4.41,1.82,10.41-2.59,13.39
		l-12.79,8.64c-4.41,2.98-10.41,1.82-13.39-2.59l-8.64-12.79C344.86,357.06,346.02,351.06,350.44,348.08 M352.6,351.28
		c-2.65,1.79-3.35,5.38-1.55,8.04l8.64,12.79c1.79,2.65,5.38,3.35,8.04,1.55l12.79-8.64c2.65-1.79,3.35-5.38,1.55-8.04l-8.64-12.79
		c-1.79-2.65-5.38-3.35-8.04-1.55L352.6,351.28z"/>
</g>
<path class="st18" d="M649.38,68.45c0.04,0.18,0.07,0.37,0.07,0.55v28.91c0,0.74-0.4,1.45-1.05,1.82l-24.27,13.99v27.69
	c0,0.74-0.4,1.45-1.05,1.82l-50.66,29.15c-0.11,0.07-0.24,0.11-0.37,0.15c-0.04,0.02-0.09,0.04-0.13,0.07
	c-0.35,0.09-0.72,0.09-1.07,0c-0.07-0.02-0.11-0.04-0.15-0.07c-0.13-0.04-0.24-0.09-0.35-0.15l-50.64-29.15
	c-0.66-0.37-1.07-1.07-1.07-1.82V54.66c0-0.18,0.04-0.37,0.09-0.55c0.02-0.07,0.04-0.11,0.07-0.18c0.04-0.11,0.09-0.22,0.13-0.33
	c0.02-0.07,0.09-0.11,0.13-0.18c0.07-0.09,0.13-0.18,0.2-0.27c0.07-0.04,0.13-0.09,0.2-0.15c0.09-0.07,0.15-0.13,0.24-0.18
	L545,38.26c0.66-0.37,1.47-0.37,2.1,0l25.34,14.58c0.09,0.04,0.15,0.11,0.22,0.18c0.07,0.04,0.15,0.11,0.22,0.15
	c0.07,0.09,0.11,0.15,0.18,0.27c0.04,0.04,0.11,0.11,0.15,0.18c0.04,0.11,0.09,0.22,0.13,0.33c0.02,0.07,0.07,0.11,0.07,0.18
	c0.07,0.18,0.09,0.35,0.09,0.55v54.17l21.09-12.14V69c0-0.2,0.04-0.37,0.09-0.55c0.02-0.07,0.04-0.13,0.07-0.18
	c0.04-0.11,0.09-0.22,0.13-0.33c0.04-0.09,0.11-0.13,0.15-0.2c0.07-0.09,0.11-0.18,0.18-0.24c0.07-0.06,0.15-0.11,0.22-0.15
	c0.07-0.07,0.13-0.13,0.22-0.18l25.34-14.58c0.64-0.4,1.45-0.4,2.1,0l25.32,14.58c0.09,0.04,0.15,0.11,0.24,0.18
	c0.07,0.04,0.13,0.09,0.2,0.15c0.07,0.06,0.13,0.15,0.2,0.24c0.04,0.07,0.11,0.11,0.13,0.2c0.07,0.11,0.09,0.22,0.13,0.33
	C649.34,68.32,649.37,68.38,649.38,68.45L649.38,68.45z M645.21,96.68V72.66l-8.86,5.08l-12.23,7.06v24.02L645.21,96.68z
	 M619.92,140.17v-24.05l-12.06,6.86l-34.37,19.64v24.27L619.92,140.17z M522.83,58.32v81.85l46.43,26.72v-24.27l-24.27-13.75
	c-0.09-0.04-0.15-0.11-0.22-0.18c-0.07-0.04-0.15-0.09-0.2-0.15h-0.02c-0.07-0.07-0.11-0.15-0.18-0.22
	c-0.04-0.07-0.11-0.13-0.15-0.22c-0.04-0.07-0.09-0.18-0.11-0.27c-0.04-0.09-0.09-0.15-0.11-0.24c-0.02-0.09-0.04-0.2-0.04-0.31
	c-0.02-0.09-0.04-0.15-0.04-0.24v-56.6l-12.23-7.06L522.83,58.32z M546.05,42.51l-21.09,12.14l21.09,12.14l21.09-12.14L546.05,42.51
	z M557.03,118.32l12.23-7.06V58.32l-8.86,5.08l-12.25,7.06v52.94L557.03,118.32z M622.02,56.85l-21.11,12.14l21.11,12.14
	l21.09-12.14L622.02,56.85z M619.92,84.8l-21.11-12.14v24.02l12.23,7.06l8.88,5.08L619.92,84.8z M571.37,138.97l46.41-26.48
	l-21.06-12.14l-46.38,26.7L571.37,138.97z"/>
<path class="st19" d="M223.6,336.77h6.54c-0.5-0.13-0.84-0.58-0.85-1.09V303.9c0-0.62,0.51-1.12,1.13-1.13h47.28
	c0.62,0,1.12,0.51,1.13,1.13v31.78c0,0.51-0.35,0.96-0.85,1.09h6.84c0.73,0.01,1.31,0.61,1.3,1.34c0,0,0,0,0,0l0,0
	c0,0.73-0.59,1.32-1.32,1.32l0,0H223.6c-0.73,0-1.32-0.59-1.32-1.32c0,0,0,0,0,0l0,0c0-0.73,0.59-1.31,1.32-1.31V336.77z
	 M267.61,310.69h5.14c0.22,0,0.4,0.18,0.4,0.4v1.17c0,0.22-0.17,0.4-0.39,0.4c0,0-0.01,0-0.01,0h-5.14c-0.22,0-0.4-0.18-0.4-0.4
	v-1.18C267.21,310.86,267.39,310.69,267.61,310.69L267.61,310.69z M258.93,310.69h4.92c0.22,0,0.4,0.18,0.4,0.4v1.17
	c-0.01,0.21-0.19,0.38-0.4,0.38h-4.92c-0.22,0-0.4-0.18-0.4-0.4v-1.16C258.53,310.86,258.71,310.69,258.93,310.69L258.93,310.69z
	 M249.06,310.69h5.62c0.22,0,0.4,0.18,0.4,0.4v1.17c0,0.22-0.18,0.4-0.4,0.4l0,0h-5.64c-0.22,0-0.4-0.17-0.4-0.39c0,0,0-0.01,0-0.01
	v-1.18c0-0.22,0.18-0.4,0.4-0.4l0,0L249.06,310.69z M265.41,332.17c-0.49,0-0.89-0.4-0.89-0.89c0-0.49,0.4-0.89,0.89-0.89h4.53
	c0.49,0,0.89,0.4,0.89,0.89c0,0.49-0.4,0.89-0.89,0.89H265.41z M251.96,332.17c-0.49,0-0.89-0.4-0.89-0.89
	c0-0.49,0.4-0.89,0.89-0.89h4.52c0.49,0,0.89,0.4,0.89,0.89c0,0.49-0.4,0.89-0.89,0.89H251.96z M238.52,332.17
	c-0.49,0-0.89-0.4-0.89-0.89c0-0.49,0.4-0.89,0.89-0.89h4.53c0.49,0,0.89,0.4,0.89,0.89c0,0.49-0.4,0.89-0.89,0.89H238.52z
	 M262.15,316.8h10.99v11.04h-10.99V316.8z M267.63,324.4c0.03,0.25-0.15,0.48-0.41,0.5c-0.25,0.03-0.48-0.15-0.5-0.41
	c0-0.03,0-0.06,0-0.1c0-0.25,0.2-0.45,0.45-0.45C267.43,323.95,267.63,324.15,267.63,324.4z M264.84,319.92
	c0-0.1,0.09-0.18,0.19-0.18h0.28c0.16,0,0.32,0.04,0.45,0.12c0.16,0.1,0.27,0.25,0.31,0.43l0,0l0.05,0.19h4.16
	c0.1,0,0.19,0.08,0.19,0.19l0,0c0,0.02,0,0.04,0,0.06l-0.48,1.95c-0.02,0.08-0.1,0.14-0.18,0.14h-3.05
	c0.07,0.25,0.14,0.38,0.22,0.44c0.2,0.08,0.41,0.1,0.62,0.07h2.16c0.1,0,0.19,0.08,0.19,0.19s-0.08,0.19-0.19,0.19h-2.15
	c-0.28,0.04-0.57-0.01-0.83-0.14c-0.23-0.2-0.37-0.47-0.41-0.77l0,0l-0.64-2.35l0,0c-0.02-0.09-0.07-0.16-0.14-0.21
	c-0.08-0.04-0.17-0.07-0.27-0.06h-0.14c-0.14,0-0.32,0-0.32-0.19L264.84,319.92z M269.64,324.39c0,0.25-0.2,0.46-0.46,0.46
	s-0.46-0.2-0.46-0.46c0-0.25,0.2-0.46,0.46-0.46S269.64,324.13,269.64,324.39z M248.71,316.8h10.98v11.04h-10.98V316.8z
	 M254.19,324.4c0,0.25-0.21,0.46-0.46,0.46c-0.25,0-0.46-0.2-0.46-0.46c0-0.25,0.2-0.46,0.46-0.46
	C253.98,323.94,254.19,324.15,254.19,324.4z M251.38,319.92c0-0.1,0.08-0.18,0.18-0.18h0.28c0.16,0,0.31,0.04,0.45,0.12
	c0.16,0.1,0.27,0.25,0.31,0.43l0,0l0.05,0.19h4.16c0.1,0,0.18,0.09,0.18,0.19c0,0.02,0,0.04,0,0.06l-0.48,1.95
	c-0.02,0.08-0.1,0.14-0.18,0.14h-3.02c0.07,0.25,0.13,0.38,0.22,0.44c0.2,0.08,0.41,0.1,0.62,0.07h2.15c0.1,0,0.19,0.08,0.19,0.19
	s-0.08,0.19-0.19,0.19h-2.15c-0.28,0.04-0.57-0.01-0.83-0.14c-0.23-0.2-0.38-0.47-0.41-0.77l0,0l-0.64-2.35l0,0
	c-0.01-0.09-0.07-0.17-0.14-0.21c-0.08-0.04-0.17-0.06-0.26-0.06h-0.14c-0.14,0-0.32,0-0.32-0.19L251.38,319.92z M256.17,324.39
	c0,0.25-0.2,0.46-0.46,0.46c-0.25,0-0.46-0.2-0.46-0.46c0,0,0,0,0,0c0-0.25,0.2-0.46,0.46-0.46
	C255.96,323.93,256.17,324.13,256.17,324.39z M235.27,316.8h10.98v11.04h-10.98V316.8z M240.74,324.4c0,0.25-0.21,0.46-0.46,0.46
	c-0.25,0-0.46-0.2-0.46-0.46c0-0.25,0.2-0.46,0.46-0.46C240.54,323.94,240.74,324.15,240.74,324.4z M237.95,319.92
	c0-0.1,0.09-0.18,0.19-0.18h0.28c0.16-0.01,0.32,0.04,0.45,0.12c0.15,0.1,0.26,0.25,0.3,0.43l0,0l0.05,0.19h4.16
	c0.1,0,0.19,0.08,0.19,0.19l0,0c0,0.02,0,0.04,0,0.06l-0.49,1.98c-0.02,0.08-0.09,0.14-0.18,0.14h-3.04
	c0.02,0.17,0.1,0.32,0.22,0.44c0.2,0.08,0.41,0.1,0.62,0.07h2.15c0.1,0,0.19,0.08,0.19,0.19s-0.08,0.19-0.19,0.19h-2.15
	c-0.28,0.04-0.57-0.01-0.83-0.14c-0.23-0.2-0.38-0.47-0.41-0.77l0,0l-0.63-2.38l0,0c-0.02-0.09-0.07-0.16-0.15-0.21
	c-0.08-0.04-0.17-0.06-0.26-0.06h-0.13c-0.14,0-0.33,0-0.33-0.19L237.95,319.92z M242.74,324.39c0.03,0.25-0.15,0.48-0.41,0.5
	c-0.25,0.03-0.48-0.15-0.5-0.41c0-0.03,0-0.06,0-0.1c0-0.25,0.2-0.45,0.45-0.45C242.54,323.93,242.74,324.13,242.74,324.39z
	 M236.72,305.48c0.5,0,0.9,0.4,0.9,0.89s-0.4,0.9-0.89,0.9s-0.9-0.4-0.9-0.89c0,0,0,0,0-0.01
	C235.83,305.88,236.22,305.48,236.72,305.48z M239.75,305.48c0.5,0,0.9,0.4,0.9,0.89s-0.4,0.9-0.89,0.9s-0.9-0.4-0.9-0.89
	c0,0,0,0,0-0.01C238.86,305.88,239.26,305.48,239.75,305.48z M233.71,305.48c0.5,0,0.9,0.4,0.9,0.89s-0.4,0.9-0.89,0.9
	s-0.9-0.4-0.9-0.89c0,0,0,0,0-0.01C232.82,305.88,233.22,305.48,233.71,305.48z M231.25,308.6h45.8v26.76h-45.82v-26.79
	L231.25,308.6z M252.35,337.27h3.7c0.35,0,0.63,0.28,0.63,0.63l0,0l0,0c0,0.35-0.28,0.63-0.63,0.63l0,0h-3.7
	c-0.35,0-0.63-0.28-0.63-0.63l0,0l0,0C251.71,337.55,252,337.27,252.35,337.27C252.35,337.27,252.35,337.27,252.35,337.27z"/>
<g>
	<g>
		<linearGradient id="SVGID_11_" gradientUnits="userSpaceOnUse" x1="219.8032" y1="202.49" x2="421.9766" y2="202.49">
			<stop  offset="0" style="stop-color:#ED1C24"/>
			<stop  offset="0.5" style="stop-color:#9E1F63"/>
			<stop  offset="1" style="stop-color:#9E1F63"/>
		</linearGradient>
		<path class="st20" d="M219.8,179.12h6.26v43.28h20.74v5.26h-27V179.12z"/>
		<linearGradient id="SVGID_12_" gradientUnits="userSpaceOnUse" x1="219.8032" y1="202.49" x2="421.9766" y2="202.49">
			<stop  offset="0" style="stop-color:#ED1C24"/>
			<stop  offset="0.5" style="stop-color:#9E1F63"/>
			<stop  offset="1" style="stop-color:#9E1F63"/>
		</linearGradient>
		<path class="st21" d="M272.87,227.66l-0.5-4.39h-0.22c-1.94,2.74-5.69,5.18-10.66,5.18c-7.06,0-10.66-4.97-10.66-10.01
			c0-8.42,7.49-13.03,20.95-12.96v-0.72c0-2.88-0.79-8.06-7.92-8.06c-3.24,0-6.62,1.01-9.07,2.59l-1.44-4.18
			c2.88-1.87,7.06-3.1,11.45-3.1c10.66,0,13.25,7.27,13.25,14.26v13.03c0,3.02,0.14,5.98,0.58,8.35H272.87z M271.93,209.87
			c-6.91-0.14-14.76,1.08-14.76,7.85c0,4.1,2.74,6.05,5.98,6.05c4.54,0,7.42-2.88,8.42-5.83c0.22-0.65,0.36-1.37,0.36-2.02V209.87z"
			/>
		<linearGradient id="SVGID_13_" gradientUnits="userSpaceOnUse" x1="219.8032" y1="202.49" x2="421.9766" y2="202.49">
			<stop  offset="0" style="stop-color:#ED1C24"/>
			<stop  offset="0.5" style="stop-color:#9E1F63"/>
			<stop  offset="1" style="stop-color:#9E1F63"/>
		</linearGradient>
		<path class="st22" d="M290.15,192.8l6.84,19.59c1.15,3.17,2.09,6.05,2.81,8.93h0.22c0.79-2.88,1.8-5.76,2.95-8.93l6.77-19.59h6.62
			l-13.68,34.85h-6.05l-13.25-34.85H290.15z"/>
		<linearGradient id="SVGID_14_" gradientUnits="userSpaceOnUse" x1="219.8032" y1="202.49" x2="421.9766" y2="202.49">
			<stop  offset="0" style="stop-color:#ED1C24"/>
			<stop  offset="0.5" style="stop-color:#9E1F63"/>
			<stop  offset="1" style="stop-color:#9E1F63"/>
		</linearGradient>
		<path class="st23" d="M341.34,227.66l-0.5-4.39h-0.22c-1.94,2.74-5.69,5.18-10.66,5.18c-7.06,0-10.66-4.97-10.66-10.01
			c0-8.42,7.49-13.03,20.95-12.96v-0.72c0-2.88-0.79-8.06-7.92-8.06c-3.24,0-6.62,1.01-9.07,2.59l-1.44-4.18
			c2.88-1.87,7.06-3.1,11.45-3.1c10.66,0,13.25,7.27,13.25,14.26v13.03c0,3.02,0.14,5.98,0.58,8.35H341.34z M340.4,209.87
			c-6.91-0.14-14.76,1.08-14.76,7.85c0,4.1,2.74,6.05,5.98,6.05c4.54,0,7.42-2.88,8.42-5.83c0.22-0.65,0.36-1.37,0.36-2.02V209.87z"
			/>
		<linearGradient id="SVGID_15_" gradientUnits="userSpaceOnUse" x1="219.8032" y1="202.49" x2="421.9766" y2="202.49">
			<stop  offset="0" style="stop-color:#ED1C24"/>
			<stop  offset="0.5" style="stop-color:#9E1F63"/>
			<stop  offset="1" style="stop-color:#9E1F63"/>
		</linearGradient>
		<path class="st24" d="M356.74,203.68c0-4.1-0.07-7.63-0.29-10.87H362l0.22,6.84h0.29c1.58-4.68,5.4-7.63,9.65-7.63
			c0.72,0,1.22,0.07,1.8,0.22v5.98c-0.65-0.14-1.3-0.22-2.16-0.22c-4.46,0-7.63,3.38-8.5,8.14c-0.14,0.86-0.29,1.87-0.29,2.95v18.58
			h-6.26V203.68z"/>
		<linearGradient id="SVGID_16_" gradientUnits="userSpaceOnUse" x1="219.8032" y1="202.49" x2="421.9766" y2="202.49">
			<stop  offset="0" style="stop-color:#ED1C24"/>
			<stop  offset="0.5" style="stop-color:#9E1F63"/>
			<stop  offset="1" style="stop-color:#9E1F63"/>
		</linearGradient>
		<path class="st25" d="M383.1,211.38c0.14,8.57,5.62,12.1,11.95,12.1c4.54,0,7.27-0.79,9.65-1.8l1.08,4.54
			c-2.23,1.01-6.05,2.16-11.59,2.16c-10.73,0-17.14-7.06-17.14-17.57s6.19-18.79,16.35-18.79c11.38,0,14.4,10.01,14.4,16.42
			c0,1.3-0.14,2.3-0.22,2.95H383.1z M401.67,206.85c0.07-4.03-1.66-10.3-8.79-10.3c-6.41,0-9.22,5.91-9.72,10.3H401.67z"/>
		<linearGradient id="SVGID_17_" gradientUnits="userSpaceOnUse" x1="219.8032" y1="202.49" x2="421.9766" y2="202.49">
			<stop  offset="0" style="stop-color:#ED1C24"/>
			<stop  offset="0.5" style="stop-color:#9E1F63"/>
			<stop  offset="1" style="stop-color:#9E1F63"/>
		</linearGradient>
		<path class="st26" d="M415.64,176.53h6.34v51.12h-6.34V176.53z"/>
	</g>
</g>
<circle class="st27" cx="360.43" cy="25.72" r="22.63"/>
<circle class="st28" cx="383.06" cy="82.67" r="11.03"/>
<circle class="st29" cx="748.07" cy="8.09" r="22.74"/>
</svg>
