<?xml version="1.0" encoding="utf-8"?>
<!-- Generator: Adobe Illustrator 25.3.0, SVG Export Plug-In . SVG Version: 6.00 Build 0)  -->
<svg version="1.1" id="Layer_1" xmlns="http://www.w3.org/2000/svg" xmlns:xlink="http://www.w3.org/1999/xlink" x="0px" y="0px"
	 viewBox="0 0 760 370" style="enable-background:new 0 0 760 370;" xml:space="preserve">
<style type="text/css">
	.st0{opacity:0.58;}
	.st1{opacity:0.67;fill:#39B54A;}
	.st2{opacity:0.67;fill:url(#SVGID_1_);}
	.st3{opacity:0.67;fill:url(#SVGID_2_);}
	.st4{opacity:0.32;}
	.st5{opacity:0.67;fill:#2A3492;}
	.st6{opacity:0.6;fill:none;stroke:#ED1C24;stroke-width:3;stroke-linecap:round;stroke-linejoin:round;}
	.st7{opacity:0.6;fill:#ED1C24;}
	.st8{opacity:0.6;fill:none;stroke:url(#SVGID_3_);stroke-width:3;stroke-linecap:round;stroke-linejoin:round;}
	.st9{opacity:0.6;fill:url(#SVGID_4_);}
	.st10{fill:url(#SVGID_5_);}
	.st11{fill:url(#SVGID_6_);}
	.st12{fill:url(#SVGID_7_);}
	.st13{fill:#662D91;}
	.st14{fill:#010101;}
	.st15{fill:#EF4136;}
	.st16{fill:#894C9E;}
	.st17{opacity:0.25;fill:#009444;}
	.st18{opacity:0.67;fill:#ED1C24;}
</style>
<g>
	<path d="M34.99,178.33h6.26v43.28h20.74v5.26h-27V178.33z"/>
	<path d="M71.28,210.59c0.14,8.57,5.62,12.1,11.95,12.1c4.54,0,7.27-0.79,9.65-1.8l1.08,4.54c-2.23,1.01-6.05,2.16-11.59,2.16
		c-10.73,0-17.14-7.06-17.14-17.57s6.19-18.79,16.35-18.79c11.38,0,14.4,10.01,14.4,16.42c0,1.3-0.14,2.3-0.22,2.95H71.28z
		 M89.86,206.06c0.07-4.03-1.66-10.3-8.79-10.3c-6.41,0-9.22,5.9-9.72,10.3H89.86z"/>
	<path d="M123.12,226.87l-0.5-4.39h-0.22c-1.94,2.74-5.69,5.18-10.66,5.18c-7.06,0-10.66-4.97-10.66-10.01
		c0-8.42,7.49-13.03,20.95-12.96v-0.72c0-2.88-0.79-8.06-7.92-8.06c-3.24,0-6.62,1.01-9.07,2.59l-1.44-4.18
		c2.88-1.87,7.06-3.1,11.45-3.1c10.66,0,13.25,7.27,13.25,14.26v13.03c0,3.02,0.14,5.98,0.58,8.35H123.12z M122.18,209.08
		c-6.91-0.14-14.76,1.08-14.76,7.85c0,4.1,2.74,6.05,5.98,6.05c4.54,0,7.42-2.88,8.42-5.83c0.22-0.65,0.36-1.37,0.36-2.02V209.08z"
		/>
	<path d="M138.52,202.89c0-4.1-0.07-7.63-0.29-10.87h5.54l0.22,6.84h0.29c1.58-4.68,5.4-7.63,9.65-7.63c0.72,0,1.22,0.07,1.8,0.22
		v5.98c-0.65-0.14-1.3-0.22-2.16-0.22c-4.46,0-7.63,3.38-8.5,8.14c-0.14,0.86-0.29,1.87-0.29,2.95v18.58h-6.26V202.89z"/>
	<path d="M162.36,201.45c0-3.6-0.07-6.55-0.29-9.43h5.62l0.36,5.76h0.14c1.73-3.31,5.76-6.55,11.52-6.55
		c4.82,0,12.31,2.88,12.31,14.83v20.81h-6.34v-20.09c0-5.62-2.09-10.3-8.07-10.3c-4.18,0-7.42,2.95-8.5,6.48
		c-0.29,0.79-0.43,1.87-0.43,2.95v20.95h-6.34V201.45z"/>
</g>
<g class="st0">
	<path class="st1" d="M275.37,101.62l8.16,4.85c2.82,1.67,3.74,5.32,2.07,8.13l-4.85,8.16c-1.67,2.82-5.32,3.74-8.13,2.07
		l-8.16-4.85c-2.82-1.67-3.74-5.32-2.07-8.13l4.85-8.16C268.91,100.87,272.55,99.94,275.37,101.62z"/>
	<path class="st1" d="M281.36,100.18l8.11,4.82c2.8,1.66,3.72,5.28,2.06,8.08l-4.82,8.11c-1.66,2.8-5.28,3.72-8.08,2.06l-8.11-4.82
		c-2.8-1.66-3.72-5.28-2.06-8.08l4.82-8.11C274.94,99.44,278.56,98.52,281.36,100.18 M280.15,102.21c-1.68-1-3.85-0.45-4.85,1.23
		l-4.82,8.11c-1,1.68-0.45,3.85,1.23,4.85l8.11,4.82c1.68,1,3.85,0.45,4.85-1.23l4.82-8.11c1-1.68,0.45-3.85-1.23-4.85
		L280.15,102.21z"/>
</g>
<g>
	<linearGradient id="SVGID_1_" gradientUnits="userSpaceOnUse" x1="704.2266" y1="309.4603" x2="729.1033" y2="309.4603">
		<stop  offset="0" style="stop-color:#FFF33B"/>
		<stop  offset="0.0595" style="stop-color:#FFE029"/>
		<stop  offset="0.1303" style="stop-color:#FFD217"/>
		<stop  offset="0.2032" style="stop-color:#FEC90E"/>
		<stop  offset="0.2809" style="stop-color:#FDC70C"/>
		<stop  offset="0.6685" style="stop-color:#F3903F"/>
		<stop  offset="0.8876" style="stop-color:#ED683C"/>
		<stop  offset="1" style="stop-color:#E93E3A"/>
	</linearGradient>
	<path class="st2" d="M718.04,297.85l8.16,4.85c2.82,1.67,3.74,5.32,2.07,8.13l-4.85,8.16c-1.67,2.82-5.32,3.74-8.13,2.07
		l-8.16-4.85c-2.82-1.67-3.74-5.32-2.07-8.13l4.85-8.16C711.58,297.11,715.23,296.18,718.04,297.85z"/>
	<linearGradient id="SVGID_2_" gradientUnits="userSpaceOnUse" x1="710.3058" y1="307.9516" x2="735.0253" y2="307.9516">
		<stop  offset="0" style="stop-color:#FFF33B"/>
		<stop  offset="0.0595" style="stop-color:#FFE029"/>
		<stop  offset="0.1303" style="stop-color:#FFD217"/>
		<stop  offset="0.2032" style="stop-color:#FEC90E"/>
		<stop  offset="0.2809" style="stop-color:#FDC70C"/>
		<stop  offset="0.6685" style="stop-color:#F3903F"/>
		<stop  offset="0.8876" style="stop-color:#ED683C"/>
		<stop  offset="1" style="stop-color:#E93E3A"/>
	</linearGradient>
	<path class="st3" d="M724.03,296.42l8.11,4.82c2.8,1.66,3.72,5.28,2.06,8.08l-4.82,8.11c-1.66,2.8-5.28,3.72-8.08,2.06l-8.11-4.82
		c-2.8-1.66-3.72-5.28-2.06-8.08l4.82-8.11C717.62,295.68,721.24,294.76,724.03,296.42 M722.83,298.45c-1.68-1-3.85-0.45-4.85,1.23
		l-4.82,8.11c-1,1.68-0.45,3.85,1.23,4.85l8.11,4.82c1.68,1,3.85,0.45,4.85-1.23l4.82-8.11c1-1.68,0.45-3.85-1.23-4.85
		L722.83,298.45z"/>
</g>
<g class="st4">
	<path class="st5" d="M318.68,67.31l15.39,2.06c5.31,0.71,9.04,5.6,8.33,10.91l-2.06,15.39c-0.71,5.31-5.6,9.04-10.91,8.33
		l-15.39-2.06c-5.31-0.71-9.04-5.6-8.33-10.91l2.06-15.39C308.48,70.33,313.37,66.6,318.68,67.31z"/>
	<path class="st5" d="M326.78,61.3l15.3,2.05c5.28,0.71,8.99,5.56,8.28,10.84l-2.05,15.3c-0.71,5.28-5.56,8.99-10.84,8.28
		l-15.3-2.05c-5.28-0.71-8.99-5.56-8.28-10.84l2.05-15.3C316.64,64.3,321.5,60.59,326.78,61.3 M326.27,65.13
		c-3.17-0.42-6.08,1.79-6.5,4.97l-2.05,15.3c-0.42,3.17,1.79,6.08,4.97,6.5l15.3,2.05c3.17,0.42,6.08-1.79,6.5-4.97l2.05-15.3
		c0.42-3.17-1.79-6.08-4.97-6.5L326.27,65.13z"/>
</g>
<g>
	<path class="st5" d="M697.86,0.81l3.7,14.2c1.28,4.9-1.66,9.91-6.56,11.19l-14.2,3.7c-4.9,1.28-9.91-1.66-11.19-6.56l-3.7-14.2
		c-1.28-4.9,1.66-9.91,6.56-11.19l14.2-3.7C691.57-7.03,696.59-4.09,697.86,0.81z"/>
	<path class="st5" d="M706.01,5.75l3.68,14.11c1.27,4.87-1.65,9.85-6.52,11.12l-14.11,3.68c-4.87,1.27-9.85-1.65-11.12-6.52
		l-3.68-14.11c-1.27-4.87,1.65-9.85,6.52-11.12l14.11-3.68C699.76-2.04,704.74,0.88,706.01,5.75 M702.48,6.67
		c-0.76-2.93-3.74-4.68-6.67-3.91L681.7,6.43c-2.93,0.76-4.68,3.74-3.91,6.67l3.68,14.11c0.76,2.93,3.74,4.68,6.67,3.91l14.11-3.68
		c2.93-0.76,4.68-3.74,3.91-6.67L702.48,6.67z"/>
</g>
<g>
	<path class="st5" d="M631.23,329.23l8.16,4.85c2.82,1.67,3.74,5.32,2.07,8.13l-4.85,8.16c-1.67,2.82-5.32,3.74-8.13,2.07
		l-8.16-4.85c-2.82-1.67-3.74-5.32-2.07-8.13l4.85-8.16C624.77,328.48,628.41,327.56,631.23,329.23z"/>
	<path class="st5" d="M637.22,327.8l8.11,4.82c2.8,1.66,3.72,5.28,2.06,8.08l-4.82,8.11c-1.66,2.8-5.28,3.72-8.08,2.06l-8.11-4.82
		c-2.8-1.66-3.72-5.28-2.06-8.08l4.82-8.11C630.8,327.05,634.42,326.13,637.22,327.8 M636.01,329.82c-1.68-1-3.85-0.45-4.85,1.23
		l-4.82,8.11c-1,1.68-0.45,3.85,1.23,4.85l8.11,4.82c1.68,1,3.85,0.45,4.85-1.23l4.82-8.11c1-1.68,0.45-3.85-1.23-4.85
		L636.01,329.82z"/>
</g>
<g>
	<polygon class="st6" points="94.05,329.41 91.12,351.28 74.4,336.88 	"/>
	<path class="st7" d="M62.97,346.47l19.56,15.96c0.18,0.08,0.36,0.16,0.54,0.24c0.8,0.14,1.54-0.29,1.69-1.09l4.03-24.93
		c0.21-0.23,0.11-0.49,0.01-0.75c-0.3-0.79-1.02-1.11-1.81-0.81l-23.59,8.96c-0.26,0.1-0.39,0.15-0.61,0.38
		C62.29,345.08,62.46,345.91,62.97,346.47z"/>
</g>
<g>
	<polygon class="st6" points="457.79,12.34 474.7,-1.83 477.33,20.08 	"/>
	<path class="st7" d="M492.24,20.71l-3.68-24.98c-0.08-0.18-0.16-0.36-0.24-0.55c-0.5-0.65-1.33-0.83-1.98-0.33l-19.78,15.69
		c-0.31,0.03-0.42,0.29-0.52,0.55c-0.31,0.78,0.01,1.51,0.79,1.82l23.46,9.29c0.26,0.1,0.39,0.15,0.7,0.13
		C491.8,22.19,492.24,21.46,492.24,20.71z"/>
</g>
<g>
	
		<linearGradient id="SVGID_3_" gradientUnits="userSpaceOnUse" x1="-64.8175" y1="256.1126" x2="-42.2779" y2="256.1126" gradientTransform="matrix(-0.9443 -0.329 0.329 -0.9443 76.8742 252.6764)">
		<stop  offset="0" style="stop-color:#FFF33B"/>
		<stop  offset="0.0595" style="stop-color:#FFE029"/>
		<stop  offset="0.1303" style="stop-color:#FFD217"/>
		<stop  offset="0.2032" style="stop-color:#FEC90E"/>
		<stop  offset="0.2809" style="stop-color:#FDC70C"/>
		<stop  offset="0.6685" style="stop-color:#F3903F"/>
		<stop  offset="0.8876" style="stop-color:#ED683C"/>
		<stop  offset="1" style="stop-color:#E93E3A"/>
	</linearGradient>
	<polygon class="st8" points="221.98,28.61 201.35,36.43 206.07,14.88 	"/>
	
		<linearGradient id="SVGID_4_" gradientUnits="userSpaceOnUse" x1="-55.1843" y1="255.436" x2="-28.8682" y2="255.436" gradientTransform="matrix(-0.9443 -0.329 0.329 -0.9443 76.8742 252.6764)">
		<stop  offset="0" style="stop-color:#FFF33B"/>
		<stop  offset="0.0595" style="stop-color:#FFE029"/>
		<stop  offset="0.1303" style="stop-color:#FFD217"/>
		<stop  offset="0.2032" style="stop-color:#FEC90E"/>
		<stop  offset="0.2809" style="stop-color:#FDC70C"/>
		<stop  offset="0.6685" style="stop-color:#F3903F"/>
		<stop  offset="0.8876" style="stop-color:#ED683C"/>
		<stop  offset="1" style="stop-color:#E93E3A"/>
	</linearGradient>
	<path class="st9" d="M192.2,9.38l-4.74,24.8c0.01,0.2,0.03,0.4,0.04,0.59c0.26,0.78,0.98,1.22,1.76,0.96l23.84-8.31
		c0.3,0.08,0.49-0.14,0.67-0.35c0.55-0.64,0.49-1.43-0.15-1.98l-19.1-16.49c-0.21-0.18-0.32-0.27-0.62-0.35
		C193.1,8.12,192.44,8.66,192.2,9.38z"/>
</g>
<g>
	<polygon class="st6" points="550.85,301.33 572.84,299.66 562.23,319 	"/>
	<path class="st7" d="M573.98,328.2l11.55-22.45c0.04-0.19,0.08-0.39,0.13-0.58c-0.03-0.82-0.6-1.45-1.42-1.42l-25.22,1.24
		c-0.27-0.16-0.51-0.01-0.74,0.14c-0.71,0.46-0.88,1.23-0.42,1.94l13.66,21.22c0.15,0.24,0.23,0.35,0.5,0.51
		C572.76,329.15,573.54,328.81,573.98,328.2z"/>
</g>
<g>
	<g>
		<linearGradient id="SVGID_5_" gradientUnits="userSpaceOnUse" x1="220.8535" y1="202.4192" x2="335.9834" y2="202.4192">
			<stop  offset="0" style="stop-color:#007DBF"/>
			<stop  offset="0.5" style="stop-color:#2E3392"/>
			<stop  offset="1" style="stop-color:#ED1C24"/>
		</linearGradient>
		<path class="st10" d="M220.85,178.91c3.02-0.5,6.98-0.94,12.02-0.94c6.19,0,10.73,1.44,13.61,4.03c2.66,2.3,4.25,5.83,4.25,10.15
			c0,4.39-1.3,7.85-3.75,10.37c-3.31,3.53-8.71,5.33-14.83,5.33c-1.87,0-3.6-0.07-5.04-0.43v19.44h-6.26V178.91z M227.12,202.31
			c1.37,0.36,3.1,0.5,5.18,0.5c7.56,0,12.17-3.67,12.17-10.37c0-6.41-4.54-9.5-11.45-9.5c-2.74,0-4.82,0.22-5.9,0.5V202.31z"/>
		<linearGradient id="SVGID_6_" gradientUnits="userSpaceOnUse" x1="220.8535" y1="202.4192" x2="335.9834" y2="202.4192">
			<stop  offset="0" style="stop-color:#007DBF"/>
			<stop  offset="0.5" style="stop-color:#2E3392"/>
			<stop  offset="1" style="stop-color:#ED1C24"/>
		</linearGradient>
		<path class="st11" d="M265.42,178.33v20.31h23.47v-20.31h6.34v48.53h-6.34v-22.75h-23.47v22.75h-6.26v-48.53H265.42z"/>
		<linearGradient id="SVGID_7_" gradientUnits="userSpaceOnUse" x1="220.8535" y1="202.4192" x2="335.9834" y2="202.4192">
			<stop  offset="0" style="stop-color:#007DBF"/>
			<stop  offset="0.5" style="stop-color:#2E3392"/>
			<stop  offset="1" style="stop-color:#ED1C24"/>
		</linearGradient>
		<path class="st12" d="M306.1,178.91c3.02-0.5,6.98-0.94,12.02-0.94c6.19,0,10.73,1.44,13.61,4.03c2.66,2.3,4.25,5.83,4.25,10.15
			c0,4.39-1.3,7.85-3.75,10.37c-3.31,3.53-8.71,5.33-14.83,5.33c-1.87,0-3.6-0.07-5.04-0.43v19.44h-6.26V178.91z M312.37,202.31
			c1.37,0.36,3.1,0.5,5.18,0.5c7.56,0,12.17-3.67,12.17-10.37c0-6.41-4.54-9.5-11.45-9.5c-2.74,0-4.82,0.22-5.9,0.5V202.31z"/>
	</g>
</g>
<path class="st13" d="M679.65,289.38c-29.29,0-53.02-12.02-53.02-26.86c0-14.84,23.72-26.86,53.02-26.86s53.02,12.02,53.02,26.86
	C732.67,277.36,708.94,289.38,679.65,289.38 M656.72,254.25c2.39,0,4.02,0.44,4.82,1.37c0.8,0.88,0.97,2.47,0.57,4.55
	c-0.44,2.34-1.28,3.84-2.56,4.82c-1.24,0.97-3.14,1.46-5.7,1.46h-3.84l2.34-12.19H656.72 M641.26,278.77h6.36l1.5-7.73h5.43
	c2.39,0,4.33-0.27,5.88-0.75c1.55-0.53,2.96-1.37,4.24-2.56c1.06-0.97,1.9-2.03,2.56-3.23c0.66-1.15,1.15-2.47,1.37-3.89
	c0.71-3.45,0.22-6.14-1.46-8.04c-1.72-1.94-4.37-2.87-8.04-2.87h-12.19L641.26,278.77 M673.29,241.97l-5.65,29.07h6.27l3.27-16.66
	h5.04c1.59,0,2.65,0.27,3.14,0.8s0.57,1.5,0.31,2.92l-2.52,12.94h6.41l2.61-13.56c0.57-2.74,0.13-4.73-1.19-6.01
	c-1.33-1.19-3.76-1.77-7.29-1.77h-5.61l1.59-7.73H673.29 M706.16,254.25c2.43,0,4.02,0.44,4.82,1.37c0.8,0.88,0.97,2.47,0.57,4.55
	c-0.44,2.34-1.28,3.84-2.52,4.82c-1.28,0.97-3.18,1.46-5.74,1.46h-3.76l2.21-12.19H706.16 M690.7,278.77h6.36l1.5-7.73h5.39
	c2.43,0,4.42-0.27,5.96-0.75c1.55-0.53,2.87-1.37,4.2-2.56c1.06-0.97,1.94-2.03,2.56-3.23c0.66-1.15,1.15-2.47,1.41-3.89
	c0.66-3.45,0.18-6.14-1.5-8.04c-1.59-1.94-4.37-2.87-8.04-2.87H696.4L690.7,278.77z"/>
<path class="st14" d="M582.69,203.6c0,15.28-12.39,27.67-27.67,27.67s-27.67-12.39-27.67-27.67s12.39-27.67,27.67-27.67
	S582.69,188.32,582.69,203.6z M567.12,186.17c-2.81,0.1-5.26,1.65-7.09,3.79c-2.02,2.35-3.37,5.14-4.34,7.98
	c-1.74-1.42-3.07-3.26-5.85-4.06c-2.23-0.68-4.65-0.24-6.49,1.19c-0.95,0.74-1.64,1.75-1.99,2.89c-0.83,2.71,0.88,5.13,1.66,5.99
	l1.7,1.82c0.35,0.36,1.2,1.29,0.78,2.62c-0.45,1.45-2.19,2.39-3.99,1.84c-0.8-0.24-1.96-0.84-1.69-1.68c0.1-0.35,0.35-0.61,0.48-0.9
	c0.12-0.25,0.18-0.45,0.22-0.56c0.33-1.07-0.12-2.47-1.27-2.82c-1.07-0.33-2.16-0.07-2.59,1.3c-0.48,1.57,0.27,4.41,4.29,5.65
	c4.7,1.45,8.68-1.12,9.24-4.45c0.35-2.09-0.59-3.65-2.32-5.64l-1.41-1.56c-0.86-0.85-1.15-2.31-0.26-3.42
	c0.75-0.94,1.81-1.35,3.55-0.87c2.54,0.69,3.68,2.45,5.56,3.87c-0.78,2.56-1.29,5.13-1.75,7.43l-0.28,1.72
	c-1.35,7.08-2.38,10.97-5.06,13.2c-0.54,0.38-1.31,0.96-2.47,1c-0.61,0.01-0.81-0.41-0.82-0.59c-0.01-0.42,0.35-0.62,0.59-0.81
	c0.36-0.19,0.9-0.52,0.86-1.55c-0.04-1.23-1.05-2.29-2.52-2.24c-1.1,0.04-2.77,1.07-2.71,2.96c0.06,1.96,1.89,3.42,4.64,3.33
	c1.47-0.05,4.75-0.65,7.99-4.49c3.77-4.41,4.82-9.46,5.61-13.16l0.88-4.88c0.49,0.06,1.02,0.1,1.59,0.11
	c4.68,0.1,7.03-2.33,7.06-4.09c0.02-1.07-0.7-2.12-1.72-2.1c-0.89,0.02-1.66,0.64-1.86,1.51c-0.22,0.99,1.49,1.87,0.16,2.74
	c-0.95,0.61-2.64,1.04-5.04,0.69l0.43-2.4c0.89-4.56,1.98-10.16,6.14-10.3c0.3-0.02,1.41,0.01,1.44,0.74
	c0.01,0.24-0.05,0.31-0.34,0.86c-0.27,0.36-0.4,0.8-0.39,1.24c0.04,1.16,0.92,1.93,2.21,1.88c1.71-0.05,2.2-1.72,2.18-2.58
	C572.05,187.35,569.93,186.08,567.12,186.17L567.12,186.17z"/>
<path class="st15" d="M675.01,97.86c2.82,4.63-0.9,10.76-3.86,14.18c-2.88,3.32-6.38,6.09-9.56,9.11c-3.41,3.24-6.69,6.65-9.5,10.45
	c-5.61,7.61-9.05,17.18-6.52,26.67c2.52,9.49,10.61,15.52,19.74,17.66c-4.61-2.02-8.92-7.17-8.93-12.43
	c-0.01-5.74,3.57-10.61,8.02-13.81c-0.53,2.06-0.83,3.94,0.5,5.77c1.25,1.71,3.37,2.53,5.43,2.09c4.76-1.06,4.98-6.38,2.16-9.48
	c-2.79-3.07-5.49-6.54-4.43-10.99c0.53-2.23,1.88-4.32,3.59-5.81c-1.31,3.51,2.42,6.96,4.88,8.69c4.26,2.99,8.94,5.24,12.86,8.74
	c4.12,3.68,7.17,8.66,6.55,14.43c-0.67,6.26-5.56,10.61-11.04,12.81c11.59-2.6,23.58-11.74,23.82-24.81
	c0.3-9.86-6.09-18.6-16.51-24.02c0.61,1.56,0.24,2.27-0.19,3.01c-1.76,3.07-6.66,3.75-9.07,0.6c-3.86-5.04,0.08-10.46,0.63-15.79
	C684.25,108.22,680.12,101.74,675.01,97.86L675.01,97.86z"/>
<path class="st16" d="M589.95,30.24c-16.97,0-30.72,4.59-30.72,10.24v40.97c0,5.66,13.76,10.24,30.72,10.24s30.72-4.59,30.72-10.24
	V40.48C620.67,34.83,606.91,30.24,589.95,30.24 M589.95,35.36c14.14,0,25.6,2.29,25.6,5.12c0,2.83-11.46,5.12-25.6,5.12
	c-14.14,0-25.6-2.29-25.6-5.12C564.34,37.65,575.8,35.36,589.95,35.36 M564.34,46.12c5.68,2.87,15.29,4.6,25.6,4.6
	c10.3,0,19.92-1.73,25.6-4.59v14.83c0,2.83-11.46,5.12-25.6,5.12c-14.14,0-25.6-2.29-25.6-5.12V46.12z M564.34,66.61
	c5.68,2.87,15.29,4.6,25.6,4.6c10.3,0,19.92-1.73,25.6-4.59v14.83c0,2.83-11.46,5.12-25.6,5.12c-14.14,0-25.6-2.29-25.6-5.12V66.61z
	"/>
<path class="st17" d="M398.84,77.24l-14.28,1.98l9.74-22.18l-8.42,1.31l-1.64-2.38l14.28-1.98l-9.74,22.18l8.42-1.31L398.84,77.24z"
	/>
<g class="st4">
	<path class="st5" d="M285.92,333.5l15.39,2.06c5.31,0.71,9.04,5.6,8.33,10.91l-2.06,15.39c-0.71,5.31-5.6,9.04-10.91,8.33
		l-15.39-2.06c-5.31-0.71-9.04-5.6-8.33-10.91l2.06-15.39C275.72,336.52,280.61,332.78,285.92,333.5z"/>
	<path class="st5" d="M294.01,327.49l15.3,2.05c5.28,0.71,8.99,5.56,8.28,10.84l-2.05,15.3c-0.71,5.28-5.56,8.99-10.84,8.28
		l-15.3-2.05c-5.28-0.71-8.99-5.56-8.28-10.84l2.05-15.3C283.88,330.49,288.74,326.78,294.01,327.49 M293.5,331.31
		c-3.17-0.42-6.08,1.79-6.5,4.97l-2.05,15.3c-0.42,3.17,1.79,6.08,4.97,6.5l15.3,2.05c3.17,0.42,6.08-1.79,6.5-4.97l2.05-15.3
		c0.42-3.17-1.79-6.08-4.97-6.5L293.5,331.31z"/>
</g>
<g class="st4">
	<path class="st18" d="M384.48,359.5l12.87-8.7c4.44-3,10.48-1.83,13.48,2.61l8.7,12.87c3,4.44,1.83,10.48-2.61,13.48l-12.87,8.7
		c-4.44,3-10.48,1.83-13.48-2.61l-8.7-12.87C378.87,368.54,380.04,362.5,384.48,359.5z"/>
	<path class="st18" d="M386.53,349.63l12.79-8.64c4.41-2.98,10.41-1.82,13.39,2.59l8.64,12.79c2.98,4.41,1.82,10.41-2.59,13.39
		l-12.79,8.64c-4.41,2.98-10.41,1.82-13.39-2.59l-8.64-12.79C380.96,358.61,382.12,352.61,386.53,349.63 M388.69,352.83
		c-2.65,1.79-3.35,5.38-1.55,8.04l8.64,12.79c1.79,2.65,5.38,3.35,8.04,1.55l12.79-8.64c2.65-1.79,3.35-5.38,1.55-8.04l-8.64-12.79
		c-1.79-2.65-5.38-3.35-8.04-1.55L388.69,352.83z"/>
</g>
</svg>
