<?xml version="1.0" encoding="utf-8"?>
<!-- Generator: Adobe Illustrator 25.3.0, SVG Export Plug-In . SVG Version: 6.00 Build 0)  -->
<svg version="1.1" id="Layer_1" xmlns="http://www.w3.org/2000/svg" xmlns:xlink="http://www.w3.org/1999/xlink" x="0px" y="0px"
	 viewBox="0 0 760 370" style="enable-background:new 0 0 760 370;" xml:space="preserve">
<style type="text/css">
	.st0{opacity:0.67;fill:url(#SVGID_1_);}
	.st1{opacity:0.67;fill:url(#SVGID_2_);}
	.st2{opacity:0.81;}
	.st3{opacity:0.67;fill:url(#SVGID_3_);}
	.st4{opacity:0.67;fill:url(#SVGID_4_);}
	.st5{opacity:0.56;}
	.st6{opacity:0.67;fill:#2E3192;}
	.st7{opacity:0.6;fill:none;stroke:#ED1C24;stroke-width:3;stroke-linecap:round;stroke-linejoin:round;}
	.st8{opacity:0.6;fill:#ED1C24;}
	.st9{opacity:0.6;fill:none;stroke:url(#SVGID_5_);stroke-width:3;stroke-linecap:round;stroke-linejoin:round;}
	.st10{opacity:0.6;fill:url(#SVGID_6_);}
	.st11{opacity:0.67;fill:url(#SVGID_7_);}
	.st12{opacity:0.67;fill:url(#SVGID_8_);}
	.st13{opacity:0.6;}
	.st14{opacity:0.67;fill:url(#SVGID_9_);}
	.st15{opacity:0.67;fill:url(#SVGID_10_);}
	.st16{opacity:0.54;fill:#009444;}
	.st17{fill:url(#path31_1_);}
	.st18{fill:url(#path31-3_1_);}
	.st19{opacity:0.2;fill:#010101;enable-background:new    ;}
	.st20{fill:url(#SVGID_11_);}
	.st21{fill:url(#SVGID_12_);}
	.st22{fill:url(#SVGID_13_);}
	.st23{fill:url(#SVGID_14_);}
	.st24{fill:url(#SVGID_15_);}
	.st25{fill:url(#SVGID_16_);}
	.st26{opacity:0.29;fill:#F7941D;}
	.st27{opacity:0.29;fill:#006838;}
	.st28{opacity:0.29;fill:#F26642;}
	.st29{opacity:0.29;fill:url(#SVGID_17_);}
	.st30{opacity:0.29;fill:url(#SVGID_18_);}
	.st31{opacity:0.29;fill:#EF4136;}
</style>
<g>
	<path d="M34.99,179.12h6.26v43.28h20.74v5.26h-27V179.12z"/>
	<path d="M71.28,211.38c0.14,8.57,5.62,12.1,11.95,12.1c4.54,0,7.27-0.79,9.65-1.8l1.08,4.54c-2.23,1.01-6.05,2.16-11.59,2.16
		c-10.73,0-17.14-7.06-17.14-17.57s6.19-18.79,16.35-18.79c11.38,0,14.4,10.01,14.4,16.42c0,1.3-0.14,2.3-0.22,2.95H71.28z
		 M89.86,206.85c0.07-4.03-1.66-10.3-8.79-10.3c-6.41,0-9.22,5.9-9.72,10.3H89.86z"/>
	<path d="M123.12,227.66l-0.5-4.39h-0.22c-1.94,2.74-5.69,5.18-10.66,5.18c-7.06,0-10.66-4.97-10.66-10.01
		c0-8.42,7.49-13.03,20.95-12.96v-0.72c0-2.88-0.79-8.06-7.92-8.06c-3.24,0-6.62,1.01-9.07,2.59l-1.44-4.18
		c2.88-1.87,7.06-3.1,11.45-3.1c10.66,0,13.25,7.27,13.25,14.26v13.03c0,3.02,0.14,5.98,0.58,8.35H123.12z M122.18,209.87
		c-6.91-0.14-14.76,1.08-14.76,7.85c0,4.1,2.74,6.05,5.98,6.05c4.54,0,7.42-2.88,8.42-5.83c0.22-0.65,0.36-1.37,0.36-2.02V209.87z"
		/>
	<path d="M138.52,203.68c0-4.1-0.07-7.63-0.29-10.87h5.54l0.22,6.84h0.29c1.58-4.68,5.4-7.63,9.65-7.63c0.72,0,1.22,0.07,1.8,0.22
		v5.98c-0.65-0.14-1.3-0.22-2.16-0.22c-4.46,0-7.63,3.38-8.5,8.14c-0.14,0.86-0.29,1.87-0.29,2.95v18.58h-6.26V203.68z"/>
	<path d="M162.36,202.24c0-3.6-0.07-6.55-0.29-9.43h5.62l0.36,5.76h0.14c1.73-3.31,5.76-6.55,11.52-6.55
		c4.82,0,12.31,2.88,12.31,14.83v20.81h-6.34v-20.09c0-5.62-2.09-10.3-8.07-10.3c-4.18,0-7.42,2.95-8.5,6.48
		c-0.29,0.79-0.43,1.87-0.43,2.95v20.95h-6.34V202.24z"/>
</g>
<g>
	
		<linearGradient id="SVGID_1_" gradientUnits="userSpaceOnUse" x1="737.7941" y1="47.9318" x2="762.6708" y2="47.9318" gradientTransform="matrix(1.5828 -0.0112 -0.0112 1.595 -440.8282 -30.0212)">
		<stop  offset="0" style="stop-color:#FFF33B"/>
		<stop  offset="0.0595" style="stop-color:#FFE029"/>
		<stop  offset="0.1303" style="stop-color:#FFD217"/>
		<stop  offset="0.2032" style="stop-color:#FEC90E"/>
		<stop  offset="0.2809" style="stop-color:#FDC70C"/>
		<stop  offset="0.6685" style="stop-color:#F3903F"/>
		<stop  offset="0.8876" style="stop-color:#ED683C"/>
		<stop  offset="1" style="stop-color:#E93E3A"/>
	</linearGradient>
	<path class="st0" d="M748.4,19.47l12.86,7.64c4.44,2.64,5.86,8.44,3.18,12.95l-7.77,13.07c-2.68,4.51-8.46,6.03-12.89,3.39
		l-12.86-7.64c-4.44-2.64-5.86-8.44-3.18-12.95l7.77-13.07C738.18,18.35,743.96,16.83,748.4,19.47z"/>
	
		<linearGradient id="SVGID_2_" gradientUnits="userSpaceOnUse" x1="743.8733" y1="46.4231" x2="768.5928" y2="46.4231" gradientTransform="matrix(1.5828 -0.0112 -0.0112 1.595 -440.8282 -30.0212)">
		<stop  offset="0" style="stop-color:#FFF33B"/>
		<stop  offset="0.0595" style="stop-color:#FFE029"/>
		<stop  offset="0.1303" style="stop-color:#FFD217"/>
		<stop  offset="0.2032" style="stop-color:#FEC90E"/>
		<stop  offset="0.2809" style="stop-color:#FDC70C"/>
		<stop  offset="0.6685" style="stop-color:#F3903F"/>
		<stop  offset="0.8876" style="stop-color:#ED683C"/>
		<stop  offset="1" style="stop-color:#E93E3A"/>
	</linearGradient>
	<path class="st1" d="M757.9,17.11l12.78,7.6c4.41,2.62,5.83,8.38,3.16,12.86l-7.72,12.99c-2.66,4.48-8.4,5.99-12.81,3.37
		l-12.78-7.6c-4.41-2.62-5.83-8.38-3.16-12.86l7.72-12.99C747.75,16,753.49,14.49,757.9,17.11 M755.97,20.36
		c-2.65-1.58-6.09-0.67-7.69,2.02l-7.72,12.99c-1.6,2.69-0.75,6.14,1.9,7.72l12.78,7.6c2.65,1.58,6.09,0.67,7.69-2.02l7.72-12.99
		c1.6-2.69,0.75-6.14-1.9-7.72L755.97,20.36z"/>
</g>
<g class="st2">
	<linearGradient id="SVGID_3_" gradientUnits="userSpaceOnUse" x1="402.4539" y1="228.2949" x2="439.3271" y2="228.2949">
		<stop  offset="0" style="stop-color:#2B3990"/>
		<stop  offset="1" style="stop-color:#ED1C24"/>
	</linearGradient>
	<path class="st3" d="M415.51,209.95l15.39,2.06c5.31,0.71,9.04,5.6,8.33,10.91l-2.06,15.39c-0.71,5.31-5.6,9.04-10.91,8.33
		l-15.39-2.06c-5.31-0.71-9.04-5.6-8.33-10.91l2.06-15.39C405.31,212.97,410.2,209.23,415.51,209.95z"/>
	<linearGradient id="SVGID_4_" gradientUnits="userSpaceOnUse" x1="410.6329" y1="222.172" x2="447.2729" y2="222.172">
		<stop  offset="0" style="stop-color:#2B3990"/>
		<stop  offset="1" style="stop-color:#ED1C24"/>
	</linearGradient>
	<path class="st4" d="M423.61,203.94l15.3,2.05c5.28,0.71,8.99,5.56,8.28,10.84l-2.05,15.3c-0.71,5.28-5.56,8.99-10.84,8.28
		l-15.3-2.05c-5.28-0.71-8.99-5.56-8.28-10.84l2.05-15.3C413.47,206.94,418.33,203.23,423.61,203.94 M423.1,207.76
		c-3.17-0.42-6.08,1.79-6.5,4.97l-2.05,15.3c-0.42,3.17,1.79,6.08,4.97,6.5l15.3,2.05c3.17,0.42,6.08-1.79,6.5-4.97l2.05-15.3
		c0.42-3.17-1.79-6.08-4.97-6.5L423.1,207.76z"/>
</g>
<g class="st5">
	<path class="st6" d="M593.92,225.24l11.43,6.79c3.94,2.34,5.24,7.45,2.9,11.39l-6.79,11.43c-2.34,3.94-7.45,5.24-11.39,2.9
		l-11.43-6.79c-3.94-2.34-5.24-7.45-2.9-11.39l6.79-11.43C584.87,224.19,589.98,222.89,593.92,225.24z"/>
	<path class="st6" d="M602.32,223.22l11.36,6.75c3.92,2.33,5.21,7.4,2.88,11.32l-6.75,11.36c-2.33,3.92-7.4,5.21-11.32,2.88
		l-11.36-6.75c-3.92-2.33-5.21-7.4-2.88-11.32L591,226.1C593.33,222.19,598.4,220.9,602.32,223.22 M600.63,226.06
		c-2.36-1.4-5.39-0.63-6.79,1.73l-6.75,11.36c-1.4,2.36-0.63,5.39,1.73,6.79l11.36,6.75c2.36,1.4,5.39,0.63,6.79-1.73l6.75-11.36
		c1.4-2.36,0.63-5.39-1.73-6.79L600.63,226.06z"/>
</g>
<g>
	<polygon class="st7" points="148.15,339.88 145.21,361.75 128.5,347.35 	"/>
	<path class="st8" d="M117.07,356.94l19.56,15.96c0.18,0.08,0.36,0.16,0.54,0.24c0.8,0.14,1.54-0.29,1.69-1.09l4.03-24.93
		c0.21-0.23,0.11-0.49,0.01-0.75c-0.3-0.79-1.02-1.11-1.81-0.81l-23.59,8.96c-0.26,0.1-0.39,0.15-0.61,0.38
		C116.39,355.55,116.56,356.38,117.07,356.94z"/>
</g>
<g>
	<polygon class="st7" points="329.38,97.24 325.37,75.55 345.73,84.04 	"/>
	<path class="st8" d="M353.62,71.37l-23.56-9.09c-0.2-0.02-0.39-0.04-0.59-0.06c-0.81,0.11-1.38,0.75-1.26,1.56l3.92,24.94
		c-0.13,0.29,0.05,0.5,0.22,0.72c0.53,0.65,1.32,0.74,1.97,0.21l19.64-15.85c0.22-0.18,0.33-0.26,0.46-0.55
		C354.7,72.48,354.28,71.74,353.62,71.37z"/>
</g>
<g>
	
		<linearGradient id="SVGID_5_" gradientUnits="userSpaceOnUse" x1="-621.5419" y1="262.8616" x2="-599.0024" y2="262.8616" gradientTransform="matrix(-0.9443 -0.329 0.329 -0.9443 76.8742 252.6764)">
		<stop  offset="0" style="stop-color:#FFF33B"/>
		<stop  offset="0.0595" style="stop-color:#FFE029"/>
		<stop  offset="0.1303" style="stop-color:#FFD217"/>
		<stop  offset="0.2032" style="stop-color:#FEC90E"/>
		<stop  offset="0.2809" style="stop-color:#FDC70C"/>
		<stop  offset="0.6685" style="stop-color:#F3903F"/>
		<stop  offset="0.8876" style="stop-color:#ED683C"/>
		<stop  offset="1" style="stop-color:#E93E3A"/>
	</linearGradient>
	<polygon class="st9" points="749.94,205.37 729.31,213.19 734.03,191.64 	"/>
	
		<linearGradient id="SVGID_6_" gradientUnits="userSpaceOnUse" x1="-611.9088" y1="262.185" x2="-585.5927" y2="262.185" gradientTransform="matrix(-0.9443 -0.329 0.329 -0.9443 76.8742 252.6764)">
		<stop  offset="0" style="stop-color:#FFF33B"/>
		<stop  offset="0.0595" style="stop-color:#FFE029"/>
		<stop  offset="0.1303" style="stop-color:#FFD217"/>
		<stop  offset="0.2032" style="stop-color:#FEC90E"/>
		<stop  offset="0.2809" style="stop-color:#FDC70C"/>
		<stop  offset="0.6685" style="stop-color:#F3903F"/>
		<stop  offset="0.8876" style="stop-color:#ED683C"/>
		<stop  offset="1" style="stop-color:#E93E3A"/>
	</linearGradient>
	<path class="st10" d="M720.16,186.14l-4.74,24.8c0.01,0.2,0.03,0.4,0.04,0.59c0.26,0.78,0.98,1.22,1.76,0.96l23.84-8.31
		c0.3,0.08,0.49-0.14,0.67-0.35c0.55-0.64,0.49-1.43-0.15-1.98l-19.1-16.49c-0.21-0.18-0.32-0.27-0.62-0.35
		C721.06,184.88,720.4,185.43,720.16,186.14z"/>
</g>
<g>
	<polygon class="st7" points="567.8,338.94 589.8,337.27 579.18,356.6 	"/>
	<path class="st8" d="M590.94,365.8l11.55-22.45c0.04-0.19,0.08-0.39,0.13-0.58c-0.03-0.82-0.6-1.45-1.42-1.42l-25.22,1.24
		c-0.27-0.16-0.51-0.01-0.74,0.14c-0.71,0.46-0.88,1.23-0.42,1.94l13.66,21.22c0.15,0.24,0.23,0.35,0.5,0.51
		C589.72,366.75,590.5,366.41,590.94,365.8z"/>
</g>
<g>
	
		<linearGradient id="SVGID_7_" gradientUnits="userSpaceOnUse" x1="364.7612" y1="506.324" x2="401.6343" y2="506.324" gradientTransform="matrix(0.3746 0.9272 -0.9272 0.3746 362.403 -368.3808)">
		<stop  offset="0" style="stop-color:#ED1C24"/>
		<stop  offset="1" style="stop-color:#92278F"/>
	</linearGradient>
	<path class="st11" d="M51.51,164.74l3.86,15.05c1.33,5.19-1.8,10.48-6.99,11.81l-15.05,3.86c-5.19,1.33-10.48-1.8-11.81-6.99
		l-3.86-15.05c-1.33-5.19,1.8-10.48,6.99-11.81l15.05-3.86C44.89,156.41,50.18,159.55,51.51,164.74z"/>
	
		<linearGradient id="SVGID_8_" gradientUnits="userSpaceOnUse" x1="372.9402" y1="500.2011" x2="409.5802" y2="500.2011" gradientTransform="matrix(0.3746 0.9272 -0.9272 0.3746 362.403 -368.3808)">
		<stop  offset="0" style="stop-color:#ED1C24"/>
		<stop  offset="1" style="stop-color:#92278F"/>
	</linearGradient>
	<path class="st12" d="M60.12,169.99l3.83,14.95c1.32,5.16-1.79,10.42-6.95,11.74l-14.95,3.83c-5.16,1.32-10.42-1.79-11.74-6.95
		l-3.83-14.95c-1.32-5.16,1.79-10.42,6.95-11.74l14.95-3.83C53.54,161.72,58.79,164.83,60.12,169.99 M56.38,170.95
		c-0.8-3.1-3.94-4.96-7.04-4.17l-14.95,3.83c-3.1,0.8-4.96,3.94-4.17,7.04l3.83,14.95c0.8,3.1,3.94,4.96,7.04,4.17l14.95-3.83
		c3.1-0.8,4.96-3.94,4.17-7.04L56.38,170.95z"/>
</g>
<g class="st13">
	<linearGradient id="SVGID_9_" gradientUnits="userSpaceOnUse" x1="609.7714" y1="57.1509" x2="650.7521" y2="57.1509">
		<stop  offset="0" style="stop-color:#2E3192"/>
		<stop  offset="1" style="stop-color:#92278F"/>
	</linearGradient>
	<path class="st14" d="M614.04,47.02l12.87-8.7c4.44-3,10.48-1.83,13.48,2.61l8.7,12.87c3,4.44,1.83,10.48-2.61,13.48l-12.87,8.7
		c-4.44,3-10.48,1.83-13.48-2.61l-8.7-12.87C608.44,56.06,609.6,50.02,614.04,47.02z"/>
	<linearGradient id="SVGID_10_" gradientUnits="userSpaceOnUse" x1="611.852" y1="47.2168" x2="652.5737" y2="47.2168">
		<stop  offset="0" style="stop-color:#2E3192"/>
		<stop  offset="1" style="stop-color:#92278F"/>
	</linearGradient>
	<path class="st15" d="M616.1,37.15l12.79-8.64c4.41-2.98,10.41-1.82,13.39,2.59l8.64,12.79c2.98,4.41,1.82,10.41-2.59,13.39
		l-12.79,8.64c-4.41,2.98-10.41,1.82-13.39-2.59l-8.64-12.79C610.52,46.13,611.69,40.13,616.1,37.15 M618.26,40.35
		c-2.65,1.79-3.35,5.38-1.55,8.04l8.64,12.79c1.79,2.65,5.38,3.35,8.04,1.55l12.79-8.64c2.65-1.79,3.35-5.38,1.55-8.04l-8.64-12.79
		c-1.79-2.65-5.38-3.35-8.04-1.55L618.26,40.35z"/>
</g>
<circle class="st16" cx="370.89" cy="375.55" r="22.74"/>
<linearGradient id="path31_1_" gradientUnits="userSpaceOnUse" x1="644.308" y1="185.3677" x2="566.6916" y2="262.984" gradientTransform="matrix(1.0312 0 0 -1.0312 -0.1094 383.7031)">
	<stop  offset="0" style="stop-color:#FAAE29"/>
	<stop  offset="1" style="stop-color:#FCD188"/>
</linearGradient>
<path id="path31" class="st17" d="M649.46,133.68v7.76c-0.1,8.25-5.82,13.58-13.65,13.53l-19.34,0.06c-6.8,0-9.53,5.82-9.57,9.73
	l-0.14,16.22c-0.05,6.05,4.87,10.91,10.91,10.91h14.55c6.05,0,11.39-4.77,11.39-10.82l0.01-6.64h-19.4v-3.88l25.33,0.09
	c8.06,0.03,15.42-7.07,15.42-15.13v-7.28C664.99,140.17,657.52,133.68,649.46,133.68 M635.88,177.34c2.02,0,3.64,1.62,3.64,3.64
	c0,2.02-1.62,3.64-3.64,3.64c-2.02,0-3.64-1.62-3.64-3.64C632.24,178.96,633.86,177.34,635.88,177.34"/>
<linearGradient id="path31-3_1_" gradientUnits="userSpaceOnUse" x1="646.7081" y1="185.488" x2="569.0917" y2="263.1044" gradientTransform="matrix(1.0312 0 0 -1.0312 1.1406 384.9531)">
	<stop  offset="0" style="stop-color:#075078"/>
	<stop  offset="1" style="stop-color:#45ABE0"/>
</linearGradient>
<path id="path31-3" class="st18" d="M620.11,114.27c-6.05,0-11.39,4.77-11.39,10.82l-0.01,6.64h19.4v3.88l-25.52,0.1
	c-8.06,0.03-15.22,6.87-15.22,14.94v7.28c0,8.06,7.46,14.55,15.52,14.55v-7.76c0-8.85,4.58-13.5,13.58-13.58h19.4
	c5.82,0,9.7-4.95,9.7-7.76v-18.19c0-6.05-4.87-10.91-10.91-10.91H620.11z M616.48,121.55c2.02,0,3.64,1.62,3.64,3.64
	c0,2.02-1.62,3.64-3.64,3.64c-2.02,0-3.64-1.62-3.64-3.64C612.84,123.17,614.46,121.55,616.48,121.55"/>
<path id="rect1128" class="st19" d="M612.59,147.26l-1.94,0.2c-6.76,0.55-11.88,6.35-11.58,13.13c0.01,0.08,0.01,0.17,0.02,0.25
	h-0.08v11.13c1.26,0.33,2.56,0.52,3.88,0.52v-7.76c0-8.85,4.58-13.5,13.58-13.58h4.13h15.28c3.53,0,6.32-1.82,7.99-3.88H612.59z
	 M624.24,166.67v3.88l25.33,0.09c3.75,0.01,7.33-1.52,10.11-3.97H624.24z M609.32,188.01c2,2.37,5.01,3.88,8.37,3.88h14.55
	c3.36,0,6.35-1.51,8.35-3.88H609.32z"/>
<g>
	<g>
		<path d="M219.6,179.7c3.02-0.5,6.98-0.94,12.02-0.94c6.19,0,10.73,1.44,13.61,4.03c2.66,2.3,4.25,5.83,4.25,10.15
			c0,4.39-1.3,7.85-3.74,10.37c-3.31,3.53-8.71,5.33-14.83,5.33c-1.87,0-3.6-0.07-5.04-0.43v19.44h-6.26V179.7z M225.86,203.1
			c1.37,0.36,3.1,0.5,5.18,0.5c7.56,0,12.17-3.67,12.17-10.37c0-6.41-4.54-9.5-11.45-9.5c-2.74,0-4.82,0.22-5.9,0.5V203.1z"/>
		<path d="M260.27,192.8l7.63,20.59c0.79,2.3,1.66,5.04,2.23,7.13h0.14c0.65-2.09,1.37-4.75,2.23-7.27l6.91-20.45h6.7l-9.5,24.84
			c-4.54,11.95-7.63,18.07-11.95,21.82c-3.1,2.74-6.19,3.82-7.78,4.1l-1.58-5.33c1.58-0.5,3.67-1.51,5.54-3.1
			c1.73-1.37,3.89-3.82,5.33-7.06c0.29-0.65,0.5-1.15,0.5-1.51c0-0.36-0.14-0.86-0.43-1.66l-12.89-32.12H260.27z"/>
		<path d="M299.52,182.8v10.01h9.07v4.83h-9.07v18.79c0,4.32,1.22,6.77,4.75,6.77c1.66,0,2.88-0.22,3.67-0.43l0.29,4.75
			c-1.22,0.5-3.17,0.86-5.62,0.86c-2.95,0-5.33-0.94-6.84-2.66c-1.8-1.87-2.45-4.97-2.45-9.07v-19.01h-5.4v-4.83h5.4v-8.35
			L299.52,182.8z"/>
		<path d="M315.71,176.53h6.34v21.75h0.14c1.01-1.8,2.59-3.38,4.54-4.46c1.87-1.08,4.1-1.8,6.48-1.8c4.68,0,12.17,2.88,12.17,14.91
			v20.74h-6.34v-20.02c0-5.62-2.09-10.37-8.06-10.37c-4.1,0-7.34,2.88-8.5,6.34c-0.36,0.86-0.43,1.8-0.43,3.02v21.03h-6.34V176.53z"
			/>
		<path d="M387.21,209.94c0,12.89-8.93,18.51-17.35,18.51c-9.43,0-16.71-6.91-16.71-17.93c0-11.67,7.63-18.51,17.28-18.51
			C380.44,192.01,387.21,199.29,387.21,209.94z M359.56,210.3c0,7.63,4.39,13.39,10.58,13.39c6.05,0,10.58-5.69,10.58-13.54
			c0-5.9-2.95-13.39-10.44-13.39C362.8,196.77,359.56,203.68,359.56,210.3z"/>
		<path d="M395.2,202.24c0-3.6-0.07-6.55-0.29-9.43h5.62l0.36,5.76h0.14c1.73-3.31,5.76-6.55,11.52-6.55
			c4.82,0,12.31,2.88,12.31,14.83v20.81h-6.34v-20.09c0-5.62-2.09-10.3-8.07-10.3c-4.18,0-7.42,2.95-8.5,6.48
			c-0.29,0.79-0.43,1.87-0.43,2.95v20.95h-6.34V202.24z"/>
	</g>
	<g>
		<linearGradient id="SVGID_11_" gradientUnits="userSpaceOnUse" x1="219.5952" y1="210.0505" x2="424.8672" y2="210.0505">
			<stop  offset="0" style="stop-color:#015493"/>
			<stop  offset="1" style="stop-color:#FEBD18"/>
		</linearGradient>
		<path class="st20" d="M219.6,179.7c3.02-0.5,6.98-0.94,12.02-0.94c6.19,0,10.73,1.44,13.61,4.03c2.66,2.3,4.25,5.83,4.25,10.15
			c0,4.39-1.3,7.85-3.74,10.37c-3.31,3.53-8.71,5.33-14.83,5.33c-1.87,0-3.6-0.07-5.04-0.43v19.44h-6.26V179.7z M225.86,203.1
			c1.37,0.36,3.1,0.5,5.18,0.5c7.56,0,12.17-3.67,12.17-10.37c0-6.41-4.54-9.5-11.45-9.5c-2.74,0-4.82,0.22-5.9,0.5V203.1z"/>
		<linearGradient id="SVGID_12_" gradientUnits="userSpaceOnUse" x1="219.5952" y1="210.0505" x2="424.8672" y2="210.0505">
			<stop  offset="0" style="stop-color:#015493"/>
			<stop  offset="1" style="stop-color:#FEBD18"/>
		</linearGradient>
		<path class="st21" d="M260.27,192.8l7.63,20.59c0.79,2.3,1.66,5.04,2.23,7.13h0.14c0.65-2.09,1.37-4.75,2.23-7.27l6.91-20.45h6.7
			l-9.5,24.84c-4.54,11.95-7.63,18.07-11.95,21.82c-3.1,2.74-6.19,3.82-7.78,4.1l-1.58-5.33c1.58-0.5,3.67-1.51,5.54-3.1
			c1.73-1.37,3.89-3.82,5.33-7.06c0.29-0.65,0.5-1.15,0.5-1.51c0-0.36-0.14-0.86-0.43-1.66l-12.89-32.12H260.27z"/>
		<linearGradient id="SVGID_13_" gradientUnits="userSpaceOnUse" x1="219.5952" y1="210.0505" x2="424.8672" y2="210.0505">
			<stop  offset="0" style="stop-color:#015493"/>
			<stop  offset="1" style="stop-color:#FEBD18"/>
		</linearGradient>
		<path class="st22" d="M299.52,182.8v10.01h9.07v4.83h-9.07v18.79c0,4.32,1.22,6.77,4.75,6.77c1.66,0,2.88-0.22,3.67-0.43
			l0.29,4.75c-1.22,0.5-3.17,0.86-5.62,0.86c-2.95,0-5.33-0.94-6.84-2.66c-1.8-1.87-2.45-4.97-2.45-9.07v-19.01h-5.4v-4.83h5.4
			v-8.35L299.52,182.8z"/>
		<linearGradient id="SVGID_14_" gradientUnits="userSpaceOnUse" x1="219.5952" y1="210.0505" x2="424.8672" y2="210.0505">
			<stop  offset="0" style="stop-color:#015493"/>
			<stop  offset="1" style="stop-color:#FEBD18"/>
		</linearGradient>
		<path class="st23" d="M315.71,176.53h6.34v21.75h0.14c1.01-1.8,2.59-3.38,4.54-4.46c1.87-1.08,4.1-1.8,6.48-1.8
			c4.68,0,12.17,2.88,12.17,14.91v20.74h-6.34v-20.02c0-5.62-2.09-10.37-8.06-10.37c-4.1,0-7.34,2.88-8.5,6.34
			c-0.36,0.86-0.43,1.8-0.43,3.02v21.03h-6.34V176.53z"/>
		<linearGradient id="SVGID_15_" gradientUnits="userSpaceOnUse" x1="219.5952" y1="210.0505" x2="424.8672" y2="210.0505">
			<stop  offset="0" style="stop-color:#015493"/>
			<stop  offset="1" style="stop-color:#FEBD18"/>
		</linearGradient>
		<path class="st24" d="M387.21,209.94c0,12.89-8.93,18.51-17.35,18.51c-9.43,0-16.71-6.91-16.71-17.93
			c0-11.67,7.63-18.51,17.28-18.51C380.44,192.01,387.21,199.29,387.21,209.94z M359.56,210.3c0,7.63,4.39,13.39,10.58,13.39
			c6.05,0,10.58-5.69,10.58-13.54c0-5.9-2.95-13.39-10.44-13.39C362.8,196.77,359.56,203.68,359.56,210.3z"/>
		<linearGradient id="SVGID_16_" gradientUnits="userSpaceOnUse" x1="219.5952" y1="210.0505" x2="424.8672" y2="210.0505">
			<stop  offset="0" style="stop-color:#015493"/>
			<stop  offset="1" style="stop-color:#FEBD18"/>
		</linearGradient>
		<path class="st25" d="M395.2,202.24c0-3.6-0.07-6.55-0.29-9.43h5.62l0.36,5.76h0.14c1.73-3.31,5.76-6.55,11.52-6.55
			c4.82,0,12.31,2.88,12.31,14.83v20.81h-6.34v-20.09c0-5.62-2.09-10.3-8.07-10.3c-4.18,0-7.42,2.95-8.5,6.48
			c-0.29,0.79-0.43,1.87-0.43,2.95v20.95h-6.34V202.24z"/>
	</g>
</g>
<g>
	<path class="st26" d="M753.57,375.55c-10.1,0-18.28-8.19-18.28-18.28s8.19-18.28,18.28-18.28s18.28,8.19,18.28,18.28
		S763.67,375.55,753.57,375.55z M753.57,378.17c11.54,0,20.9-9.36,20.9-20.9s-9.36-20.9-20.9-20.9s-20.9,9.36-20.9,20.9
		S742.03,378.17,753.57,378.17z"/>
	<circle class="st26" cx="746.14" cy="363" r="19.25"/>
</g>
<g>
	<path class="st27" d="M151.04,93.34c-10.1,0-18.28-8.19-18.28-18.28s8.19-18.28,18.28-18.28c10.1,0,18.28,8.19,18.28,18.28
		S161.13,93.34,151.04,93.34z M151.04,95.95c11.54,0,20.9-9.36,20.9-20.9s-9.36-20.9-20.9-20.9c-11.54,0-20.9,9.36-20.9,20.9
		S139.5,95.95,151.04,95.95z"/>
	<circle class="st27" cx="143.61" cy="80.79" r="19.25"/>
</g>
<g>
	<path class="st28" d="M258.06,66.78c-14.95,0-27.07-12.12-27.07-27.07s12.12-27.07,27.07-27.07c14.95,0,27.07,12.12,27.07,27.07
		S273.01,66.78,258.06,66.78z M258.06,70.64c17.08,0,30.93-13.85,30.93-30.93S275.15,8.78,258.06,8.78s-30.93,13.85-30.93,30.93
		S240.98,70.64,258.06,70.64z"/>
	<circle class="st28" cx="247.06" cy="48.19" r="28.49"/>
</g>
<g>
	
		<linearGradient id="SVGID_17_" gradientUnits="userSpaceOnUse" x1="897.272" y1="184.3245" x2="939.0626" y2="184.3245" gradientTransform="matrix(0.6092 0.793 -0.793 0.6092 302.9921 -539.5323)">
		<stop  offset="0" style="stop-color:#3C489E"/>
		<stop  offset="1" style="stop-color:#53154F"/>
	</linearGradient>
	<path class="st29" d="M701.7,312c-6.15-8.01-4.65-19.49,3.36-25.64c8.01-6.15,19.49-4.65,25.64,3.36
		c6.15,8.01,4.65,19.49-3.36,25.64C719.33,321.51,707.86,320.01,701.7,312z M699.63,313.59c7.03,9.15,20.15,10.87,29.3,3.84
		s10.87-20.15,3.84-29.3c-7.03-9.15-20.15-10.87-29.3-3.84S692.6,304.44,699.63,313.59z"/>
	
		<linearGradient id="SVGID_18_" gradientUnits="userSpaceOnUse" x1="891.4907" y1="190.0566" x2="929.9813" y2="190.0566" gradientTransform="matrix(0.6092 0.793 -0.793 0.6092 302.9921 -539.5323)">
		<stop  offset="0" style="stop-color:#3C489E"/>
		<stop  offset="1" style="stop-color:#53154F"/>
	</linearGradient>
	<circle class="st30" cx="707.13" cy="298.46" r="19.25"/>
</g>
<g>
	<path class="st26" d="M325.37,332.01c-5.66,0-10.25-4.59-10.25-10.25s4.59-10.25,10.25-10.25s10.25,4.59,10.25,10.25
		S331.04,332.01,325.37,332.01z M325.37,333.48c6.47,0,11.72-5.25,11.72-11.72c0-6.47-5.25-11.72-11.72-11.72
		c-6.47,0-11.72,5.25-11.72,11.72C313.66,328.23,318.9,333.48,325.37,333.48z"/>
	<circle class="st26" cx="321.21" cy="324.97" r="10.79"/>
</g>
<g>
	<path class="st31" d="M550.26,62.63c-2.11,9.87-11.83,16.17-21.7,14.06c-9.87-2.11-16.17-11.83-14.06-21.7s11.83-16.17,21.7-14.06
		C546.07,43.04,552.37,52.76,550.26,62.63z M552.81,63.18c2.41-11.29-4.78-22.39-16.07-24.8s-22.39,4.78-24.8,16.07
		s4.78,22.39,16.07,24.8S550.4,74.46,552.81,63.18z"/>
	<circle class="st31" cx="536.43" cy="67.27" r="19.25"/>
</g>
</svg>
